<svg width="25" height="20" viewBox="0 0 25 20" fill="none" xmlns="http://www.w3.org/2000/svg">
<path d="M23.9411 9.97966C23.9411 9.59011 23.7819 9.21244 23.4894 8.93038L14.9988 0.463273C14.6734 0.135604 14.3355 0 13.9727 0C13.174 0 12.5938 0.570777 12.5938 1.34754C12.5938 1.74739 12.7456 2.09259 13.0029 2.34755L15.8903 5.27262L20.7015 9.67211L21.1495 8.83501L16.6903 8.57258H1.00823C0.161599 8.57258 -0.413818 9.14924 -0.413818 9.97966C-0.413818 10.81 0.161599 11.3867 1.00823 11.3867H16.6903L21.1495 11.1243L20.7015 10.3001L15.8903 14.6867L13.0029 17.6094C12.7456 17.8514 12.5938 18.2096 12.5938 18.6094C12.5938 19.3861 13.174 19.9569 13.9727 19.9569C14.3355 19.9569 14.6734 19.8108 14.9777 19.5148L23.4894 11.0289C23.7819 10.7469 23.9411 10.3691 23.9411 9.97966Z" fill="#32D74B"/>
</svg>
