<svg width="40" height="34" viewBox="0 0 40 34" fill="none" xmlns="http://www.w3.org/2000/svg">
<g clip-path="url(#clip0_981_1024)">
<path d="M39.4983 16.9671C39.4983 16.3353 39.2402 15.7228 38.7658 15.2653L24.9959 1.53355C24.4682 1.00215 23.9201 0.782227 23.3318 0.782227C22.0365 0.782227 21.0954 1.7079 21.0954 2.96764C21.0954 3.61611 21.3416 4.17594 21.7589 4.58944L26.4417 9.33325L34.2444 16.4683L34.971 15.1107L27.7391 14.6851H2.30625C0.9332 14.6851 0 15.6203 0 16.9671C0 18.3137 0.9332 19.249 2.30625 19.249H27.7391L34.971 18.8234L34.2444 17.4867L26.4417 24.6008L21.7589 29.3408C21.3416 29.7333 21.0954 30.3141 21.0954 30.9626C21.0954 32.2223 22.0365 33.148 23.3318 33.148C23.9201 33.148 24.4682 32.9109 24.9617 32.431L38.7658 18.6686C39.2402 18.2113 39.4983 17.5987 39.4983 16.9671Z" fill="black"/>
</g>
<defs>
<clipPath id="clip0_981_1024">
<rect width="40" height="32.4356" fill="white" transform="translate(0 0.782227)"/>
</clipPath>
</defs>
</svg>
