<svg width="31" height="38" viewBox="0 0 31 38" fill="none" xmlns="http://www.w3.org/2000/svg">
<g clip-path="url(#clip0_819_269)">
<path d="M29.98 29.0622C30.7034 28.3572 30.6906 27.2878 29.98 26.5984L21.9275 18.7291C21.6069 18.4212 21.1331 18.2212 20.7119 18.2212C19.7431 18.2212 19.0894 18.8906 19.0894 19.8437C19.0894 20.309 19.2369 20.689 19.5503 20.984L22.9028 24.2159L25.3281 26.3153L21.9831 26.1844H1.65093C0.700621 26.1844 0 26.8722 0 27.8225C0 28.7856 0.700621 29.4762 1.65093 29.4762H21.9831L25.3281 29.3453L22.9028 31.4419L19.5503 34.6637C19.2369 34.9716 19.0894 35.3516 19.0894 35.8169C19.0894 36.77 19.7431 37.4394 20.7119 37.4394C21.1331 37.4394 21.6069 37.2394 21.9275 36.9315L29.98 29.0622Z" fill="#32D74B"/>
<path d="M0.544658 8.39293C-0.1944 9.09793 -0.165962 10.1673 0.544658 10.8466L8.59715 18.7132C8.91778 19.0338 9.38871 19.2338 9.79996 19.2338C10.7659 19.2338 11.4353 18.5545 11.4353 17.5985C11.4353 17.146 11.275 16.766 10.9587 16.4582L7.62183 13.2392L5.19649 11.1398L8.54151 11.2707H28.8709C29.8212 11.2707 30.509 10.5829 30.509 9.6198C30.509 8.66949 29.8212 7.98168 28.8709 7.98168H8.54151L5.19649 8.09981L7.62183 6.01323L10.9587 2.78135C11.275 2.47354 11.4353 2.10636 11.4353 1.64105C11.4353 0.685113 10.7659 0.0185547 9.79996 0.0185547C9.38871 0.0185547 8.91778 0.205741 8.59715 0.526364L0.544658 8.39293Z" fill="#FF453A"/>
</g>
<defs>
<clipPath id="clip0_819_269">
<rect width="30.8969" height="37.4394" fill="white"/>
</clipPath>
</defs>
</svg>
