<svg width="25" height="20" viewBox="0 0 25 20" fill="none" xmlns="http://www.w3.org/2000/svg">
<path d="M0.172363 9.97966C0.172363 10.3691 0.341998 10.7469 0.634605 11.0289L9.13574 19.5148C9.43991 19.8108 9.7779 19.9569 10.1406 19.9569C10.9393 19.9569 11.5302 19.3861 11.5302 18.6094C11.5302 18.2096 11.3678 17.8514 11.1128 17.6094L8.22542 14.6867L3.42249 10.3001L2.96386 11.1243L7.42311 11.3867H23.1052C23.9518 11.3867 24.5273 10.81 24.5273 9.97966C24.5273 9.14924 23.9518 8.57258 23.1052 8.57258H7.42311L2.96386 8.83501L3.42249 9.67211L8.22542 5.27262L11.1128 2.34755C11.3678 2.09259 11.5302 1.74739 11.5302 1.34754C11.5302 0.570777 10.9393 0 10.1406 0C9.7779 0 9.43991 0.135604 9.11462 0.463273L0.634605 8.93038C0.341998 9.21244 0.172363 9.59011 0.172363 9.97966Z" fill="#FF453A"/>
</svg>
