<svg width="31" height="32" viewBox="0 0 31 32" fill="none" xmlns="http://www.w3.org/2000/svg">
<path d="M15.1383 9.77026L9.10266 14.4142L11.5111 21.8706H18.7655L21.1884 14.4142L15.1383 9.77026ZM20.6227 2.55479L15.1227 1.0776L9.62157 2.55479L15.1227 6.99229L20.6227 2.55479ZM14.7584 1.75416V11.1534H15.5338V1.75416H14.7584ZM26.0445 6.49229L23.9977 13.2579L30.1539 16.711L29.087 10.5464L26.0445 6.49229ZM28.9967 11.6526L28.7038 10.9307L19.9819 14.457L20.2748 15.1799L28.9967 11.6526ZM18.7466 30.1853L23.9798 27.9342L28.0219 23.404L20.3548 23.3092L18.7466 30.1853ZM23.8594 27.1918L18.0958 19.7901L17.4463 20.2568L23.24 27.6574L23.8594 27.1918ZM11.5289 30.1954L9.93516 23.3048L2.26814 23.4142L6.31016 27.9298L11.5289 30.1954ZM6.41609 27.202L7.05001 27.6676L12.8438 20.2524L12.1942 19.7857L6.41609 27.202ZM4.23204 6.49229L1.20407 10.5464L0.122663 16.711L6.29344 13.2579L4.23204 6.49229ZM1.29438 11.6526L10.0163 15.1799L10.3092 14.457L1.58735 10.9307L1.29438 11.6526ZM15.1383 31.1306C23.4792 31.1306 30.2911 24.3176 30.2911 15.9923C30.2911 7.66588 23.4781 0.854004 15.1372 0.854004C6.81188 0.854004 0 7.66588 0 15.9923C0 24.3176 6.81297 31.1306 15.1383 31.1306ZM15.1383 30.357C7.2136 30.357 0.773604 23.917 0.773604 15.9923C0.773604 8.0676 7.21251 1.62761 15.1372 1.62761C23.0619 1.62761 29.5175 8.0676 29.5175 15.9923C29.5175 23.917 23.063 30.357 15.1383 30.357Z" fill="black"/>
</svg>
