<svg width="30" height="30" viewBox="0 0 30 30" fill="none" xmlns="http://www.w3.org/2000/svg">
<path d="M14.8095 29.9846C22.9692 29.9846 29.6331 23.2373 29.6331 14.9923C29.6331 6.74617 22.9681 0 14.8084 0C6.66392 0 0 6.74617 0 14.9923C0 23.2373 6.66284 29.9846 14.8095 29.9846ZM11.2045 28.7477C7.6445 27.8048 4.64148 25.4435 2.7852 22.3314L9.24535 22.2397L10.9873 19.9735L9.05322 13.874L5.73287 12.5225L0.754661 15.3265C0.755731 11.4527 2.04431 8.19271 4.18246 5.69671L6.01841 11.8066L9.27333 13.1403L14.4358 9.12148V5.80008L9.5581 1.79209C11.183 1.13319 12.9586 0.766142 14.8084 0.766142C16.6725 0.766142 18.4338 1.1188 20.0587 1.79209L15.1964 5.7569V9.12148L20.3588 13.1403L23.6126 11.8066L25.4486 5.69671C27.5867 8.19271 28.8753 11.4527 28.8764 15.3265L23.8982 12.5225L20.5778 13.874L18.6295 19.9735L20.3857 22.2397L26.8458 22.3314C24.9895 25.4435 21.9723 27.8048 18.4265 28.7477L19.7961 22.7462L18.2944 20.8139H11.3366L9.83601 22.7462L11.2045 28.7477Z" fill="white"/>
</svg>
