<svg width="422" height="419" viewBox="0 0 422 419" fill="none" xmlns="http://www.w3.org/2000/svg">
<path d="M263.798 33.2129L258.48 50.9754C278.518 65.3751 291.564 88.6194 291.564 114.808C291.564 143.426 275.997 168.543 252.738 182.427L258.878 199.279C289.053 182.765 309.467 151.129 309.467 114.808C309.467 80.4977 291.252 50.3652 263.798 33.2129ZM130.436 114.808C130.436 88.6194 143.482 65.3751 163.52 50.9754L158.203 33.2129C130.748 50.3652 112.533 80.4977 112.533 114.808C112.533 151.129 132.947 182.765 163.122 199.28L169.261 182.427C146.003 168.543 130.436 143.426 130.436 114.808Z" fill="#00BE14"/>
<path d="M257.187 10.7785C253.876 18.2179 235.162 60.2625 231.211 106.995C231.195 106.616 231.173 106.145 231.148 105.585C230.645 94.6504 228.596 50.0641 238.777 3.11657L238.948 3.1609C241.964 3.94191 250.122 6.05464 257.587 9.87468C257.503 10.0689 257.369 10.3701 257.19 10.7735L257.187 10.7785Z" fill="black"/>
<path d="M189.176 88.5376C189.176 88.5376 195.921 112.923 199.264 133.77H205.166C205.166 133.77 193.514 61.6926 164.997 9.87468C168.141 8.33154 174.529 5.30796 184.526 2.94243L211.061 133.77H216.977L190.204 1.76913C190.204 1.76913 198.55 0.077066 209.065 0C208.663 15.0614 209.955 81.2093 222.924 133.77H228.884C228.884 133.77 214.23 80.6781 214.834 0.0313532C220.628 0.111993 229.471 1.06384 233.762 2.02444C233.744 2.11198 233.714 2.24739 233.675 2.42965C232.077 9.77748 213.927 93.2706 239.136 185.6H183.44C183.44 185.6 198.036 142.57 189.176 88.5376Z" fill="black"/>
<path d="M173.957 212.959L180.719 194.536H241.878L248.627 212.959H173.957Z" fill="black"/>
<path d="M400.254 341.191C400.254 345.917 404.096 349.748 408.834 349.748H422V359.154H407.567C397.741 359.154 389.775 351.21 389.775 341.411V331.173C389.775 321.375 397.741 313.431 407.567 313.431H421.476V322.837H408.834C404.096 322.837 400.254 326.668 400.254 331.393H419.772V332.624C419.772 337.139 416.101 340.799 411.574 340.799H400.254V341.191Z" fill="black"/>
<path d="M269.252 340.799V341.191C269.252 345.917 273.094 349.748 277.832 349.748H290.998V359.154H276.565C266.739 359.154 258.773 351.21 258.773 341.411V331.173C258.773 321.375 266.739 313.431 276.565 313.431H290.474V322.837H277.832C273.094 322.837 269.252 326.668 269.252 331.393H288.77V332.624C288.77 337.139 285.099 340.799 280.572 340.799H269.252Z" fill="black"/>
<path d="M188.408 340.799V341.191C188.408 345.917 192.25 349.748 196.988 349.748H210.154V359.154H195.721C185.894 359.154 177.928 351.21 177.928 341.411V331.173C177.928 321.375 185.894 313.431 195.721 313.431H209.63V322.837H196.988C192.25 322.837 188.408 326.668 188.408 331.393H207.925V332.624C207.925 337.139 204.255 340.799 199.727 340.799H188.408Z" fill="black"/>
<path d="M254.138 329.897C254.138 339.187 248.096 343.229 243.998 345.059C243.942 345.084 243.926 345.153 243.962 345.202L254.354 359.154H241.277L234.214 349.671C232.72 347.664 231.963 345.158 232.321 342.684C232.785 339.474 234.84 336.967 237.716 335.966C242.191 334.411 243.485 333.001 243.485 329.678C243.485 325.105 240.539 324.037 239.194 323.789C238.707 323.698 237.961 323.713 237.961 323.713H227.484V359.154H217.005V313.431H238.66C242.288 313.431 245.982 314.853 248.795 317.333C251.233 319.481 254.138 323.404 254.138 329.897Z" fill="black"/>
<path d="M373.835 326.435C372.161 323.483 369.398 321.938 365.712 321.938C359.169 321.938 353.935 327.092 353.935 336.293C353.935 345.494 358.908 350.647 365.517 350.647C369.186 350.647 371.826 348.983 373.508 346.468C375.317 343.765 378.624 342.47 381.821 343.096L385.734 343.862C383.576 354.04 376.051 360.173 365.517 360.173C352.757 360.173 343.335 351.103 343.335 336.293C343.335 321.482 352.889 312.411 365.777 312.411C376.314 312.411 383.839 317.958 385.734 327.745L379.407 328.991C377.191 329.428 374.947 328.396 373.835 326.435Z" fill="black"/>
<path d="M30.5007 326.435C28.8266 323.483 26.0635 321.938 22.3782 321.938C15.835 321.938 10.6004 327.092 10.6004 336.293C10.6004 345.494 15.5733 350.647 22.183 350.647C25.8518 350.647 28.4918 348.983 30.1742 346.468C31.9828 343.765 35.2894 342.47 38.4868 343.096L42.3998 343.862C40.2413 354.04 32.7164 360.173 22.183 360.173C9.42323 360.173 0 351.103 0 336.293C0 321.482 9.55465 312.411 22.4432 312.411C32.9796 312.411 40.5041 317.958 42.3998 327.745L36.0724 328.991C33.8568 329.428 31.6124 328.396 30.5007 326.435Z" fill="black"/>
<path d="M312.478 318.114L327.086 341.875V313.431H337.565V359.154H330.824C327.973 359.154 325.326 357.676 323.835 355.252L308.746 330.709V359.154H298.267V313.431H304.091C307.513 313.431 310.689 315.205 312.478 318.114Z" fill="black"/>
<path d="M110.168 318.114L124.776 341.875V313.431H135.255V359.154H128.514C125.663 359.154 123.016 357.676 121.525 355.252L106.436 330.709V359.154H95.9572V313.431H101.781C105.203 313.431 108.379 315.205 110.168 318.114Z" fill="black"/>
<path fill-rule="evenodd" clip-rule="evenodd" d="M46.342 336.293C46.342 321.48 55.0425 312.412 68.5224 312.412C81.9992 312.412 90.7023 321.48 90.7023 336.293C90.7023 351.104 81.9992 360.173 68.5224 360.173C55.0425 360.173 46.342 351.104 46.342 336.293ZM56.8105 336.293C56.8105 346.081 61.9792 350.778 68.5224 350.778C75.0656 350.778 80.2338 346.081 80.2338 336.293C80.2338 326.506 75.0656 321.808 68.5224 321.808C61.9792 321.808 56.8105 326.506 56.8105 336.293Z" fill="black"/>
<path d="M143.593 359.154V321.606C143.593 317.092 147.264 313.431 151.791 313.431H175.293V322.837H158.171C155.907 322.837 154.072 324.667 154.072 326.925V331.393H171.473V332.625C171.473 337.139 167.803 340.8 163.276 340.8H154.072V359.154H143.593Z" fill="black"/>
<path d="M232.635 252.927L242.288 255.422L243.813 249.551L233.888 246.987C228.448 245.581 224.722 247.612 223.399 252.705L219.346 268.304C219.158 269.028 219.235 269.708 219.567 270.272C219.9 270.837 220.46 271.234 221.184 271.422L224.87 272.374L227.481 262.285L238.652 265.171L240.161 259.368L228.987 256.481L229.421 254.813C229.996 252.601 230.658 252.416 232.635 252.927Z" fill="black"/>
<path d="M201.314 244.321L185.207 247.581C184.471 247.73 183.89 248.098 183.526 248.645C183.162 249.192 183.049 249.869 183.198 250.602L186.409 266.375C186.931 268.94 188.085 270.788 189.838 271.866C190.997 272.579 192.386 272.936 193.989 272.935C194.805 272.934 195.676 272.84 196.599 272.653L206.666 270.616L205.454 264.662L195.661 266.644C193.656 267.051 193.005 266.829 192.548 264.584L192.204 262.891L203.532 260.598L202.334 254.712L191.006 257.005L190.146 252.78L202.526 250.275L201.314 244.321Z" fill="black"/>
<path d="M269.568 266.673C269.87 265.753 270.091 264.396 268.545 263.208L267.565 262.456C266.036 261.281 264.826 261.785 263.943 262.356L241.017 277.152L247.009 280.533L261.623 271.107L259.105 279.578L256.887 277.916L253.058 280.653L257.814 284.195L256.709 288L261.958 292.791L269.568 266.673Z" fill="black"/>
<path d="M145.263 262.135C163.354 246.561 186.804 237.984 211.292 237.984C235.78 237.984 259.23 246.561 277.322 262.135C279.201 263.753 280.999 265.437 282.72 267.174L286.128 262.977C284.436 261.289 282.674 259.651 280.839 258.072C261.771 241.656 237.071 232.616 211.292 232.616C185.513 232.616 160.814 241.656 141.745 258.072C139.91 259.651 138.149 261.289 136.456 262.977L139.864 267.174C141.585 265.436 143.383 263.753 145.263 262.135Z" fill="black"/>
<path d="M211.292 282.378C228.736 282.378 244.813 290.442 254.264 302.171L257.565 298.106C247.158 285.697 230.098 277.306 211.292 277.306C192.488 277.306 175.427 285.697 165.019 298.106L168.32 302.171C177.772 290.442 193.848 282.378 211.292 282.378Z" fill="black"/>
<path d="M167.305 279.942C166.069 280.944 164.631 281.433 163.361 281.283C161.753 281.1 160.775 280.443 159.175 278.472L149.952 267.164L144.979 271.195L155.022 283.518C157.158 286.128 159.59 287.525 162.46 287.787C162.798 287.819 163.133 287.836 163.466 287.839C166.246 287.863 168.828 286.886 171.33 284.867C174.118 282.596 175.647 279.959 176.006 276.807C176.334 273.95 175.458 271.289 173.331 268.673L163.289 256.353L158.317 260.383L167.535 271.696V271.697C169.142 273.662 169.586 274.752 169.437 276.362C169.325 277.63 168.548 278.935 167.305 279.942Z" fill="black"/>
<path d="M335.5 376.703H333.073V375.462H339.296V376.703H336.869V383.325H335.5V376.703Z" fill="black"/>
<path d="M346.491 375.462L344.087 381.747L341.683 375.462H340.207V383.325H341.594V378.61L343.402 383.325H344.772L346.58 378.61V383.325H347.967V375.462H346.491Z" fill="black"/>
<path d="M161.036 417.981L178.335 375.461H188.69L205.99 417.981H194.965L192.725 412.138H189.36C184.516 412.138 180.588 408.221 180.588 403.391H189.374L183.513 388.096L172.061 417.981H161.036Z" fill="black"/>
<path d="M226.182 395.202H244.551C246.807 395.202 248.635 397.025 248.635 399.274V403.627C248.635 408.223 246.436 412.608 242.605 415.163C238.958 417.596 234.543 419 228.766 419C216.71 419 206.744 410.536 206.744 396.796C206.744 383.056 216.834 374.588 228.643 374.588C239.654 374.588 245.931 379.987 248.145 388.022L238.731 390.783C237.317 385.998 233.873 383.422 228.521 383.422C222.678 383.422 216.586 387.778 216.586 396.796C216.586 405.812 222.184 410.167 229.627 410.167C232.63 410.167 235.232 409.246 237.261 407.86C238.649 406.912 239.471 405.336 239.471 403.658V402.867H232.308C228.925 402.867 226.182 400.132 226.182 396.759V395.202Z" fill="black"/>
<path d="M272.282 410.257C277.645 410.257 280.566 406.735 280.566 401.024V375.462H290.312V401.569C290.312 413.414 282.091 419 272.282 419C262.474 419 254.253 413.414 254.253 401.569V375.462H263.998V401.024C263.998 406.735 266.92 410.257 272.282 410.257Z" fill="black"/>
<path d="M105.681 375.462V406.502C105.681 408.01 106.907 409.233 108.418 409.233H125.145V417.981H103.606C99.3699 417.981 95.9355 414.556 95.9355 410.332V375.462H105.681Z" fill="black"/>
<path d="M306.426 401.277C306.426 405.671 309.999 409.234 314.405 409.234H326.649V417.981H313.227C304.089 417.981 296.681 410.593 296.681 401.481V391.961C296.681 382.849 304.089 375.462 313.227 375.462H326.161V384.208H314.405C309.999 384.208 306.426 387.771 306.426 392.165H324.576V393.31C324.576 397.509 321.163 400.912 316.952 400.912H306.426V401.277Z" fill="black"/>
<path d="M137.594 400.912V401.277C137.594 405.671 141.166 409.234 145.573 409.234H157.816V417.981H144.394C135.256 417.981 127.849 410.593 127.849 401.481V391.961C127.849 382.849 135.256 375.462 144.394 375.462H157.329V384.208H145.573C141.166 384.208 137.594 387.771 137.594 392.165H155.744V393.31C155.744 397.509 152.331 400.912 148.12 400.912H137.594Z" fill="black"/>
</svg>
