<?xml version="1.0" encoding="UTF-8" standalone="no"?>
<svg
   width="700"
   height="722.46954"
   viewBox="0 0 700 722.46954"
   fill="none"
   version="1.1"
   id="svg826"
   sodipodi:docname="Logo Ligue des champions feÌminine de l'UEFA (2021).svg"
   inkscape:version="1.1.1 (c3084ef, 2021-09-22)"
   xmlns:inkscape="http://www.inkscape.org/namespaces/inkscape"
   xmlns:sodipodi="http://sodipodi.sourceforge.net/DTD/sodipodi-0.dtd"
   xmlns="http://www.w3.org/2000/svg"
   xmlns:svg="http://www.w3.org/2000/svg">
  <defs
     id="defs830" />
  <sodipodi:namedview
     id="namedview828"
     pagecolor="#ffffff"
     bordercolor="#666666"
     borderopacity="1.0"
     inkscape:pageshadow="2"
     inkscape:pageopacity="0.0"
     inkscape:pagecheckerboard="0"
     showgrid="false"
     inkscape:zoom="0.94055352"
     inkscape:cx="202.54031"
     inkscape:cy="161.60697"
     inkscape:window-width="1440"
     inkscape:window-height="900"
     inkscape:window-x="0"
     inkscape:window-y="0"
     inkscape:window-maximized="0"
     inkscape:current-layer="svg826" />
  <g
     id="g1416"
     transform="scale(1.728396)">
    <path
       style="fill:#0050a0;fill-opacity:1"
       d="m 192.87,202.847 -15.547,3.152 c -0.71,0.144 -1.271,0.5 -1.622,1.028 -0.351,0.529 -0.46,1.183 -0.316,1.892 l 3.099,15.249 c 0.504,2.479 1.617,4.266 3.309,5.309 1.118,0.689 2.46,1.034 4.007,1.033 0.786,-0.001 1.628,-0.092 2.519,-0.273 l 9.716,-1.97 -1.169,-5.756 -9.453,1.917 c -1.934,0.392 -2.563,0.179 -3.004,-1.991 l -0.333,-1.637 10.934,-2.216 -1.156,-5.691 -10.934,2.216 -0.83,-4.084 11.949,-2.423 z"
       id="path1006" />
    <path
       style="fill:#0050a0;fill-opacity:1"
       d="m 266.229,220.069 c 1.814,1.564 3.55,3.192 5.21,4.871 l 3.29,-4.057 c -1.633,-1.632 -3.334,-3.216 -5.105,-4.743 -18.404,-15.869 -42.243,-24.608 -67.124,-24.608 -24.881,0 -48.72,8.739 -67.124,24.608 -1.771,1.527 -3.472,3.111 -5.105,4.743 l 3.289,4.056 c 1.661,-1.679 3.396,-3.306 5.21,-4.87 17.461,-15.056 40.095,-23.348 63.73,-23.348 23.635,0 46.268,8.292 63.729,23.348 z"
       id="path1004" />
    <path
       style="fill:#0050a0;fill-opacity:1"
       d="m 223.099,211.168 9.317,2.411 1.472,-5.675 -9.579,-2.48 c -5.251,-1.358 -8.847,0.605 -10.123,5.528 l -3.913,15.08 c -0.182,0.699 -0.107,1.358 0.214,1.904 0.32,0.546 0.861,0.929 1.56,1.11 l 3.558,0.921 2.52,-9.753 10.783,2.79 1.455,-5.611 -10.785,-2.791 0.419,-1.611 c 0.555,-2.139 1.194,-2.317 3.102,-1.823 z"
       id="path1002" />
    <path
       style="fill:#0050a0;fill-opacity:1"
       d="m 251.401,249.705 7.345,-25.249 c 0.292,-0.889 0.504,-2.202 -0.988,-3.35 l -0.945,-0.727 c -1.476,-1.136 -2.644,-0.648 -3.497,-0.096 l -22.127,14.304 5.783,3.268 14.107,-9.112 -2.432,8.189 -2.14,-1.607 -3.697,2.645 4.59,3.425 -1.066,3.678 z"
       id="path1000" />
    <path
       style="fill:#0050a0;fill-opacity:1"
       d="m 202.5,234.735 c -18.15,0 -34.616,8.112 -44.661,20.107 l 3.186,3.931 c 9.122,-11.339 24.639,-19.135 41.475,-19.135 16.836,0 32.353,7.796 41.475,19.135 l 3.186,-3.931 C 237.116,242.847 220.649,234.735 202.5,234.735 Z"
       id="path998" />
    <path
       style="fill:#0050a0;fill-opacity:1"
       d="m 168.442,234.251 c 0.318,-2.761 -0.528,-5.332 -2.581,-7.862 l -9.692,-11.91 -4.8,3.896 8.897,10.937 c 1.552,1.9 1.981,2.953 1.837,4.51 -0.108,1.226 -0.857,2.488 -2.057,3.461 -1.194,0.969 -2.582,1.443 -3.808,1.297 -1.552,-0.178 -2.495,-0.812 -4.04,-2.718 l -8.901,-10.932 -4.8,3.898 9.694,11.912 c 2.06,2.524 4.408,3.873 7.177,4.128 0.328,0.03 0.65,0.047 0.972,0.05 2.683,0.023 5.175,-0.921 7.59,-2.874 2.691,-2.195 4.167,-4.744 4.512,-7.793 z"
       id="path996" />
  </g>
  <g
     id="g1408"
     transform="scale(1.728396)">
    <path
       style="fill:#0050a0;fill-opacity:1"
       d="m 153.205,273.419 c 2.881,0 5.004,1.167 6.276,2.144 0.564,0.438 1.175,0.67 1.768,0.67 1.403,0 2.345,-1.24 2.345,-2.399 0,-0.687 -0.336,-1.392 -0.907,-1.893 -1.807,-1.504 -5.375,-3.26 -9.482,-3.26 -8.39,0 -15.217,6.689 -15.217,14.912 0,8.222 6.827,14.912 15.217,14.912 8.358,0 15.158,-6.69 15.158,-14.912 0,-2.281 -0.538,-4.51 -1.598,-6.629 l -0.198,-0.394 -4.484,2.169 0.203,0.404 c 0.647,1.289 0.988,2.828 0.988,4.45 0,5.704 -4.423,10.172 -10.069,10.172 -5.679,0 -10.127,-4.468 -10.127,-10.172 0,-5.705 4.448,-10.174 10.127,-10.174 z"
       id="path994" />
    <path
       style="fill:#0050a0;fill-opacity:1"
       d="m 209.864,298.218 c 1.379,0 2.459,-1.054 2.459,-2.4 v -15.899 c 0,-6.166 -5.022,-11.182 -11.194,-11.182 -3.359,0 -6.631,1.629 -8.682,4.285 -2.121,-2.692 -5.34,-4.285 -8.73,-4.285 -6.172,0 -11.194,5.016 -11.194,11.182 v 18.011 h 4.918 v -18.011 c 0,-3.553 2.815,-6.442 6.276,-6.442 3.402,0 6.276,2.95 6.276,6.439 l -0.057,11.713 c 0,1.344 1.08,2.397 2.458,2.397 1.379,0 2.459,-1.053 2.459,-2.397 v -11.71 c 0,-3.553 2.815,-6.442 6.276,-6.442 3.403,0 6.276,2.95 6.276,6.442 v 15.899 c 0,1.346 1.08,2.4 2.459,2.4 z"
       id="path992" />
    <path
       style="fill:#0050a0;fill-opacity:1"
       d="m 231.698,268.737 c -8.39,0 -15.216,6.665 -15.216,14.856 0,8.222 6.826,14.912 15.216,14.912 4.947,0 9.556,-2.61 12.331,-6.982 l 0.24,-0.378 -4.235,-2.678 -0.226,0.427 c -1.565,2.96 -4.75,4.871 -8.11,4.871 -5.584,0 -10.127,-4.564 -10.127,-10.172 0,-5.579 4.543,-10.116 10.127,-10.116 4.442,0 8.188,3.146 9.276,7.717 h -9.564 c -1.303,0 -2.285,1.006 -2.285,2.341 0,1.279 1.004,2.284 2.285,2.284 h 14.93 v -2.226 c 0,-8.191 -6.568,-14.856 -14.642,-14.856 z"
       id="path990" />
    <path
       style="fill:#0050a0;fill-opacity:1"
       d="m 288.671,258.463 c -0.925,0 -1.724,0.573 -2.139,1.541 l -4.847,11.923 h 5.045 l 4.137,-10.155 c 0.124,-0.308 0.204,-0.711 0.204,-1.026 0,-1.279 -1.054,-2.283 -2.4,-2.283 z"
       id="path988" />
    <path
       style="fill:#0050a0;fill-opacity:1"
       d="m 124.221,290.436 -6.529,-14.39 c -0.407,-0.813 -1.241,-1.339 -2.124,-1.339 -0.915,0 -1.707,0.448 -2.076,1.186 l -6.47,14.542 -8.6823,-21.124 H 92.82 l 12.106,27.943 c 0.289,0.714 1.182,1.251 2.079,1.251 0.782,0 1.769,-0.398 2.077,-1.246 l 6.431,-14.847 6.542,14.851 c 0.294,0.662 1.237,1.242 2.017,1.242 0.946,0 1.722,-0.463 2.079,-1.246 l 12.107,-27.948 h -5.522 z"
       id="path986" />
    <path
       style="fill:#0050a0;fill-opacity:1"
       d="m 300.985,273.305 c 3.268,0 5.174,1.029 6.016,1.64 0.386,0.285 0.877,0.449 1.347,0.449 1.26,0 2.286,-0.998 2.286,-2.227 0,-0.771 -0.337,-1.453 -0.924,-1.871 -1.882,-1.348 -3.966,-2.559 -8.725,-2.559 -6.485,0 -11.193,3.617 -11.193,8.599 0,5.188 3.763,8.54 9.585,8.54 h 3.305 c 2.037,0 4.466,0.659 4.466,3.801 0,2.509 -2.487,4.261 -6.047,4.261 -3.314,0 -6.06,-0.924 -8.395,-2.828 l -0.323,-0.262 -3.258,3.465 0.374,0.302 c 3.091,2.509 7.21,3.89 11.602,3.89 6.626,0 11.079,-3.548 11.079,-8.828 0,-5.005 -3.818,-8.368 -9.498,-8.368 h -3.305 c -2.852,0 -4.553,-1.486 -4.553,-3.973 0,-2.411 2.476,-4.031 6.161,-4.031 z"
       id="path984" />
    <path
       style="fill:#0050a0;fill-opacity:1"
       d="m 274.519,283.077 v 8.321 c 0,1.332 1.127,2.458 2.46,2.458 1.332,0 2.459,-1.126 2.459,-2.458 v -8.321 c 0,-8.444 -6.046,-14.34 -14.701,-14.34 -8.117,0 -14.238,6.189 -14.238,14.396 v 14.797 h 4.917 v -14.797 c 0,-5.775 3.884,-9.656 9.666,-9.656 5.293,0 9.437,4.216 9.437,9.6 z"
       id="path982" />
  </g>
  <path
     id="path978"
     style="fill:#0050a0;fill-opacity:1;stroke-width:1.7284"
     d="m 300.79491,0 c -2.67383,9.6265952 -6.29535,22.473868 -8.97955,31.793033 -0.0951,0.326494 -0.36348,0.569049 -0.69879,0.631271 -9.61334,1.770742 -21.55517,4.285762 -31.60061,6.825812 -9.95902,2.51136 -21.68098,6.394262 -30.8242,9.813375 -0.40099,0.149679 -0.8521,-0.0033 -1.08025,-0.36796 -5.67605,-9.075462 -11.325,-18.161487 -16.82823,-27.343764 -0.57554,12.015291 -1.16782,24.027668 -1.75202,36.043132 -0.0156,0.316814 -0.19763,0.604674 -0.47936,0.752797 -7.21778,3.823558 -17.05591,9.416637 -23.6169,14.684615 -5.99754,4.844348 -13.87818,10.974778 -18.91784,16.247596 -0.36659,0.38215 -0.97919,0.369661 -1.33006,-0.027 -6.81074,-7.739414 -17.91185,-22.617683 -17.91185,-22.617683 0,0 3.79178,26.109711 6.71104,39.348006 0.0351,0.16247 0.0368,0.33497 -0.027,0.48949 -7.04684,16.75784 -8.39214,29.16986 -8.53733,35.3646 -4.75724,-10.83047 -7.85626,-19.26374 -8.21663,-20.24788 -0.006,-0.019 -0.0319,-0.0123 -0.0304,0.007 0.0207,0.8616 -2.43928,13.44624 15.18085,64.55491 10.30712,29.89434 30.86131,69.18986 30.86131,69.18986 l -11.7173,-47.62205 c -0.21207,-0.86247 0.23381,-1.74901 1.05324,-2.09297 l 11.13331,-4.68557 c 7.52716,12.93013 20.40409,25.98823 29.07891,37.37317 0.26617,0.34741 0.39395,0.77965 0.36457,1.21866 -0.91432,12.79531 -1.82078,25.72871 -2.05584,38.82477 7.45457,-4.84297 14.30616,-8.78186 22.17209,-13.11149 0.73975,-0.4079 1.66463,-0.24438 2.22463,0.38821 12.05729,13.61285 24.58832,25.81005 37.58586,38.67623 -6.19803,-16.53038 -11.77518,-30.98908 -18.23593,-47.35872 -0.34049,-0.86593 0.0312,-1.85182 0.86081,-2.27528 9.74644,-4.98469 18.93249,-9.58257 28.82237,-14.5327 11.68914,8.99976 32.01224,23.66871 36.84657,27.14797 0.62913,0.45457 0.89662,1.2587 0.66502,1.99846 l -13.73265,44.226 41.24183,-26.60447 c 0.5963,-0.38543 1.36165,-0.38543 1.95794,0 l 41.21145,26.60447 -13.73265,-44.226 c -0.22987,-0.73976 0.0393,-1.54389 0.66841,-1.99846 4.83432,-3.47926 25.15743,-18.14821 36.84657,-27.14797 9.88988,4.95013 19.07419,9.54801 28.82235,14.5327 0.82617,0.42346 1.19957,1.40935 0.86081,2.27528 -6.46075,16.36964 -12.03617,30.82834 -18.23593,47.35872 12.99754,-12.86618 25.5252,-25.06338 37.58249,-38.67623 0.56173,-0.63259 1.48652,-0.79611 2.228,-0.38821 7.86422,4.32963 14.71415,8.26852 22.16872,13.11149 -0.23506,-13.09606 -1.13988,-26.02946 -2.05247,-38.82477 -0.0311,-0.43901 0.095,-0.87125 0.3612,-1.21866 8.67828,-11.38838 21.55512,-24.44807 29.08228,-37.37993 l 11.15357,4.69233 c 0.81926,0.34396 1.26582,1.2305 1.05323,2.09297 l -11.7173,47.62205 c 0,0 20.55317,-39.29552 30.86131,-69.18986 17.621,-51.10867 15.16185,-63.69331 15.18086,-64.55491 0.002,-0.019 -0.0251,-0.0258 -0.0337,-0.007 -0.36815,1.00972 -3.61734,9.84781 -8.57784,21.07495 -0.0415,-5.85892 -1.15865,-18.62166 -8.54408,-36.19167 -0.0639,-0.15452 -0.065,-0.32702 -0.0304,-0.48949 2.91926,-13.238295 6.71103,-39.348006 6.71103,-39.348006 0,0 -11.10024,14.878269 -17.91185,22.617683 -0.34913,0.396666 -0.96199,0.409152 -1.32668,0.027 -5.04173,-5.272816 -12.92367,-11.403248 -18.9212,-16.247596 -6.56099,-5.267978 -16.39741,-10.861057 -23.61692,-14.684615 -0.28173,-0.148123 -0.4638,-0.435983 -0.47936,-0.752797 -0.58247,-12.015464 -1.17819,-24.027841 -1.75202,-36.043132 -5.50494,9.182277 -11.15391,18.268302 -16.82823,27.343764 -0.22988,0.364691 -0.67753,0.517639 -1.08025,0.36796 -9.14149,-3.419113 -20.86516,-7.302015 -30.82418,-9.813375 -10.04544,-2.54005 -21.98563,-5.05507 -31.59724,-6.825812 -0.33704,-0.06222 -0.6071,-0.304777 -0.70216,-0.631271 C 405.12784,22.473868 401.50457,9.6265952 398.83074,0 c -4.51111,9.908462 -9.08941,19.187663 -13.90818,28.818977 -0.16765,0.331334 -0.51293,0.526485 -0.88108,0.49624 -11.15161,-0.915706 -23.05279,-1.025254 -34.23035,-0.95197 -11.17581,-0.07328 -23.07535,0.03627 -34.22696,0.95197 -0.36815,0.03025 -0.71687,-0.164906 -0.88108,-0.49624 C 309.88259,19.187663 305.3043,9.908462 300.79491,0 Z m 49.01622,30.179415 c 8.45531,5.570445 16.87729,11.184374 25.22717,16.912624 0.37852,0.261161 0.49961,0.7634 0.28356,1.168017 -5.89383,11.016796 -11.2942,22.205676 -16.74384,33.447164 10.91137,-6.057855 21.69011,-12.289988 32.74839,-18.073892 0.35432,-0.186321 0.79185,-0.116223 1.07012,0.168788 9.36617,9.495982 18.48141,19.183246 28.09993,28.434139 -2.67556,-10.735067 -5.61456,-27.286602 -8.1795,-38.446682 -0.0916,-0.409284 0.10594,-0.824591 0.48273,-1.009357 1.30321,-0.636914 19.20697,-9.504498 26.45932,-12.183166 10.55877,12.437365 19.65461,25.743281 21.27412,28.214714 0.17629,0.27084 0.1941,0.613301 0.0506,0.904709 -4.95877,10.083633 -10.41191,22.825332 -15.0492,31.897687 9.13631,-3.188204 18.2033,-6.529923 27.22898,-10.015925 0.43729,-0.168864 0.93197,0.02353 1.13765,0.445601 5.69161,11.606004 11.38423,23.210174 16.95313,34.875114 -0.0691,-12.21907 -0.21913,-29.254736 -0.51987,-41.910224 -0.0104,-0.369531 0.20967,-0.704037 0.55362,-0.847321 1.73186,-0.726272 16.90245,-7.574769 23.02616,-9.877511 2.4405,10.685462 6.21854,20.957492 8.07484,31.759276 0.0311,0.17681 0.007,0.35922 -0.0641,0.52324 -1.24444,2.82178 -16.8316,32.15087 -16.8316,32.15087 0,0 13.96271,-4.47208 20.92641,-5.52952 0.59976,-0.0907 1.14161,0.33154 1.18827,0.93509 1.03704,13.32282 2.65337,40.74896 2.65337,40.74896 l 12.21692,-40.45527 c 0,0 3.1904,1.64579 6.9946,5.08392 2.48889,2.24864 3.89093,4.00939 4.66871,5.14805 -5.39433,11.99144 -12.56606,26.19682 -20.21076,36.48199 -3.91827,5.26988 -7.83307,9.65858 -12.45999,13.74278 -3.59333,3.1716 -7.53451,5.92364 -11.72068,8.26389 -8.24964,4.61482 -17.99354,9.02919 -22.35774,10.94425 -1.0716,0.47186 -2.3026,-0.18561 -2.50483,-1.34018 l -5.84346,-33.55857 -18.70517,45.08008 c -0.21086,0.50469 -0.63582,0.88426 -1.16126,1.03636 -4.90691,1.42766 -30.39076,8.77087 -43.33818,11.19406 -1.6679,0.31113 -34.39959,4.33129 -45.97465,5.18858 -0.78297,0.057 -1.49707,-0.39147 -1.78917,-1.11739 -5.9647,-14.84174 -17.70256,-43.53735 -17.70254,-43.53735 0,0 -11.70584,28.69561 -17.66881,43.53735 -0.29383,0.72592 -1.0062,1.17442 -1.78916,1.11739 -11.5768,-0.85729 -44.30676,-4.87747 -45.97466,-5.18858 -12.94742,-2.42319 -38.43464,-9.7664 -43.34155,-11.19406 -0.52544,-0.1521 -0.94876,-0.53167 -1.15789,-1.03636 l -18.70854,-45.08008 -5.84346,33.55857 c -0.20223,1.15457 -1.43322,1.81204 -2.50483,1.34018 -5.39951,-2.37136 -20.6815,-9.31168 -27.89064,-14.22551 -6.81507,-4.64593 -13.07728,-11.26567 -18.62076,-18.72541 -7.7147,-10.37919 -14.95331,-24.75293 -20.36267,-36.81281 0.81944,-1.13867 2.19795,-2.78671 4.4459,-4.81723 3.80402,-3.43813 6.99122,-5.08392 6.99122,-5.08392 l 12.21693,40.45527 c 0,0 1.61718,-27.42614 2.65335,-40.74896 0.0479,-0.60355 0.59025,-1.02583 1.18828,-0.93509 6.96371,1.05744 20.92641,5.52952 20.92641,5.52952 0,0 -15.58888,-29.32909 -16.8316,-32.15087 -0.0743,-0.16402 -0.0919,-0.34643 -0.0608,-0.52324 1.8563,-10.801784 5.63099,-21.073814 8.07149,-31.759276 6.12371,2.302742 11.91734,5.004321 17.85784,7.622496 1.74395,0.765852 3.43472,1.528743 5.1683,2.255015 0.34049,0.141729 0.56226,0.467834 0.55362,0.837192 -0.30074,12.657217 -0.45073,29.698003 -0.51987,41.920353 5.5689,-11.66494 11.26154,-23.26911 16.95315,-34.875114 0.20568,-0.422074 0.70035,-0.614465 1.13763,-0.445601 9.02568,3.486002 18.09103,6.827721 27.22561,10.015925 -4.63383,-9.072355 -9.97997,-22.49245 -15.04244,-31.897687 -0.14864,-0.288299 -0.13077,-0.633869 0.0473,-0.904709 1.61778,-2.471433 3.17894,-4.723917 4.73622,-6.883202 5.38741,-7.446621 10.72185,-13.884891 16.5379,-21.331512 7.25235,2.678668 15.04472,6.48012 21.86151,9.894393 1.74223,0.871112 3.29961,1.656884 4.60455,2.295526 0.37508,0.18321 0.56934,0.584747 0.476,0.992476 -2.56494,11.161808 -5.50222,27.717076 -8.17951,38.45681 9.61852,-9.250893 18.7355,-18.938159 28.09995,-28.434139 0.28173,-0.285013 0.71414,-0.355109 1.06673,-0.168788 11.06001,5.783904 21.84212,12.016037 32.75176,18.073892 -5.44963,-11.241488 -10.85001,-22.430368 -16.74384,-33.447164 -0.21605,-0.404617 -0.0933,-0.906856 0.28695,-1.168017 8.34642,-5.72825 16.76681,-11.342177 25.22039,-16.912624 z" />
  <g
     id="g1399"
     transform="scale(1.728396)">
    <path
       style="fill:#0050a0;fill-opacity:1"
       d="m 203.374,298.377 c -0.002,0 -0.004,-0.001 -0.006,-0.001 -0.002,0 -0.004,0.001 -0.007,0.001 z"
       id="path980" />
    <path
       id="path974"
       style="fill:#0050a0;fill-opacity:1"
       d="m 116.1582,315.48828 -14.88476,35.67578 c -0.875,1.7 -1.15418,2.64144 -2.267581,4.02344 -1.1373,1.411 -2.586018,2.08594 -2.636718,2.08594 l 0.06836,0.21875 c 0.6134,0 1.353516,0 1.353516,0 h 8.162103 c 1.46,0 2.86771,-0.91883 3.34571,-2.17383 l 3.03906,-7.81641 h 16.86133 l 3.03906,7.81641 c 0.479,1.255 1.8567,2.17383 3.3457,2.17383 0,0 8.90358,0 9.51758,0 l 0.0684,-0.21875 c -0.051,0 -1.50267,-0.67494 -2.63867,-2.08594 -1.024,-1.27 -1.34045,-2.168 -2.06445,-3.625 -0.129,-0.26 -0.25714,-0.53278 -0.36914,-0.80078 l -14.71875,-35.27344 z m 4.59571,10.1836 c 0.005,0.015 0.0116,0.0299 0.0156,0.0449 l 0.0137,-0.0449 c 0.043,0.134 5.80469,15.07226 5.80469,15.07226 h -11.63672 c 0,0 5.75974,-14.93826 5.80274,-15.07226 z" />
    <path
       id="path970"
       style="fill:#0050a0;fill-opacity:1"
       d="m 210.17383,315.49219 -0.0859,0.27734 c 2.011,1.165 3.37044,3.26159 3.39844,5.68359 0.018,0.193 0.0388,0.38094 0.0508,0.58594 v 35.45703 h 12.95898 l 0.0664,-0.21289 c -1.353,-0.851 -3.39453,-2.68997 -3.39453,-6.41797 v -7.65234 h 5.26172 c 6.797,0.033 13.62623,-2.09744 16.36523,-8.39844 2.109,-5.069 1.29536,-11.93629 -3.18164,-15.52929 -3.579,-2.879 -8.12859,-3.77297 -13.18359,-3.79297 z m 12.97265,7.26172 h 5.28321 c 5.371,0 9.58056,4.08928 7.47656,9.23828 -1.168,3.023 -4.30256,3.90934 -7.47656,3.90234 h -5.28321 z" />
    <path
       style="fill:#0050a0;fill-opacity:1"
       d="m 263.985,351.104 v -35.612 h -12.94 l -0.085,0.277 c 2.01,1.165 3.431,3.375 3.459,5.797 0.018,0.192 -0.009,35.93 -0.009,35.93 l 12.889,0.005 0.065,-0.213 c -1.323,-0.831 -3.291,-2.62 -3.379,-6.184 z"
       id="path966" />
    <path
       style="fill:#0050a0;fill-opacity:1"
       d="M 88.1553,350.866 V 315.52 H 75.247 l -0.0857,0.276 c 2.0108,1.166 3.424,3.261 3.4507,5.683 0.0046,0.238 0,11.503 0,11.503 H 59.8805 V 315.488 H 46.9067 l -0.1042,0.308 c 2.0099,1.166 3.4157,3.349 3.4434,5.771 0.0101,0.247 0.0064,35.929 0.0064,35.929 h 12.9572 l 0.0664,-0.212 c -1.3541,-0.851 -3.3954,-2.69 -3.3954,-6.418 V 339.751 H 78.612 v 17.742 l 12.8733,0.003 0.0645,-0.212 c -1.3522,-0.851 -3.3945,-2.69 -3.3945,-6.418 z"
       id="path964" />
    <path
       style="fill:#0050a0;fill-opacity:1"
       d="m 0,336.573 c 0,8.163 4.21823,15.045 12.0818,18.782 3.7386,1.777 7.8184,2.646 11.8448,2.646 5.6931,0 11.5449,-1.848 15.8766,-5.227 V 343.1 l -0.3321,-0.096 c -2.6787,4.588 -7.9973,7.728 -14.148,7.728 -10.6927,0 -16.03343,-7.638 -16.03343,-14.328 0,-2.378 0.64292,-4.768 1.82823,-6.731 2.6649,-4.63 8.0195,-7.798 14.2052,-7.798 6.2328,0 11.6095,3.223 14.2523,7.911 l 0.2278,-0.067 -0.0065,-9.562 C 32.4386,314.387 21.0902,313.32 11.9555,317.673 4.18042,321.379 0,328.628 0,336.573 Z"
       id="path962" />
    <path
       id="path960"
       style="fill:#0050a0;fill-opacity:1"
       d="m 295.67578,315.11914 c -3.337,0 -6.43512,0.54238 -9.20312,1.60938 -2.775,1.069 -5.18507,2.58018 -7.16407,4.49218 -1.98,1.911 -3.53504,4.20436 -4.62304,6.81836 -1.083,2.608 -1.63086,5.47925 -1.63086,8.53125 0,3.054 0.54786,5.9223 1.63086,8.5293 1.087,2.613 2.64304,4.90931 4.62304,6.82031 1.98,1.913 4.38907,3.42319 7.16407,4.49219 2.768,1.067 5.86512,1.60937 9.20312,1.60937 3.34,0 6.43145,-0.54137 9.18945,-1.60937 2.765,-1.07 5.16572,-2.58214 7.13672,-4.49414 1.969,-1.911 3.51752,-4.20536 4.60352,-6.81836 1.083,-2.607 1.63281,-5.4753 1.63281,-8.5293 0,-3.052 -0.54981,-5.92325 -1.63281,-8.53125 -1.086,-2.613 -2.63647,-4.90073 -4.60547,-6.80273 -1.969,-1.903 -4.36981,-3.41514 -7.13281,-4.49414 -2.76,-1.078 -5.85141,-1.62305 -9.19141,-1.62305 z m 0,7.85156 c 2.002,0 3.81835,0.31269 5.40234,0.92969 1.568,0.611 2.91972,1.50625 4.01172,2.65625 1.099,1.157 1.95397,2.58795 2.54297,4.25195 0.597,1.686 0.90039,3.62572 0.90039,5.76172 0,2.137 -0.30339,4.07477 -0.90039,5.75977 -0.589,1.666 -1.44401,3.09228 -2.54101,4.23828 -1.094,1.143 -2.44468,2.03353 -4.01368,2.64453 -1.58199,0.617 -3.39934,0.92969 -5.40234,0.92969 -2.003,0 -3.82692,-0.31364 -5.41992,-0.93164 -1.581,-0.612 -2.93902,-1.50153 -4.04102,-2.64453 -1.108,-1.146 -1.97126,-2.57128 -2.57226,-4.23829 -0.605,-1.682 -0.91211,-3.61881 -0.91211,-5.75781 0,-2.138 0.30611,-4.07581 0.91211,-5.75781 0.6,-1.666 1.46522,-3.09691 2.57422,-4.25391 1.101,-1.15 2.45906,-2.04425 4.03906,-2.65625 1.594,-0.618 3.41792,-0.93164 5.41992,-0.93164 z" />
    <path
       style="fill:#0050a0;fill-opacity:1"
       d="m 200.925,350.866 v -35.374 h -6.79 c -1.434,0 -2.678,0.234 -3.337,1.59 l -12.755,23.51 c -0.347,0.614 -0.677,1.264 -0.982,1.935 -0.064,0.141 -0.129,0.284 -0.191,0.426 -0.057,-0.127 -0.113,-0.254 -0.17,-0.38 -0.297,-0.665 -0.622,-1.313 -0.964,-1.916 l -12.884,-23.588 c -0.673,-1.338 -1.918,-1.577 -3.361,-1.577 h -10.155 l -0.086,0.277 c 2.011,1.165 3.371,3.263 3.399,5.685 0.003,0.292 0.051,36.042 0.051,36.042 h 11.879 l 0.067,-0.212 c -1.354,-0.851 -3.396,-2.69 -3.396,-6.418 l -0.006,-20.294 c 0,-0.037 0,-0.073 -0.001,-0.111 l 11.81,22.208 h 7.67 l 11.66,-22.147 v 26.974 h 11.88 l 0.065,-0.212 c -1.353,-0.851 -3.403,-2.69 -3.403,-6.418 z"
       id="path956" />
    <path
       style="fill:#0050a0;fill-opacity:1"
       d="m 351.859,315.769 c 2.01,1.165 3.429,3.301 3.458,5.723 0,0.243 -0.007,20.779 -0.007,20.779 l -21.103,-25.306 c -0.86,-1.066 -1.75,-1.473 -3.12,-1.473 h -8.441 l -0.085,0.277 c 2.011,1.165 3.429,3.301 3.456,5.723 0,0.243 -0.016,36.004 -0.016,36.004 h 11.88 l 0.066,-0.212 c -1.354,-0.851 -3.395,-2.69 -3.395,-6.418 0,0 -0.01,-19.766 -0.027,-20.191 l 21.067,25.259 c 0.966,1.165 1.874,1.548 3.383,1.562 h 4.882 v -42.004 h -11.913 z"
       id="path954" />
    <path
       style="fill:#0050a0;fill-opacity:1"
       d="m 398.279,333.906 c -1.742,-0.723 -3.646,-1.192 -5.524,-1.654 -2.626,-0.648 -5.127,-1.262 -7.13,-2.506 -2.808,-1.664 -1.634,-5.3 1.085,-6.415 1.919,-0.812 4.307,-1.025 6.791,-0.577 3.699,0.667 6.888,2.653 8.749,5.451 l 1.04,1.522 0.316,-0.092 -0.021,-10.128 c 0,0 -0.682,-0.593 -0.809,-0.665 -6.241,-4.864 -16.534,-5.096 -22.981,-0.505 -4.862,3.461 -6.226,8.792 -3.726,14.661 2.068,4.202 6.531,5.649 10.862,6.655 0.872,0.203 1.75,0.372 2.63,0.542 1.796,0.347 6.142,1.501 6.471,4.569 0.341,3.23 -2.073,4.805 -3.829,5.421 -4.522,1.582 -11.013,-0.673 -14.706,-4.453 -1.421,-1.453 -2.188,-3.182 -2.55,-4.207 l -0.272,0.079 v 11.561 c 2.244,1.864 7.078,4.835 14.016,4.835 5.097,0 10.213,-1.731 13.213,-5.354 2.518,-3.04 3.222,-5.554 3.078,-8.974 -0.178,-4.262 -2.758,-8.133 -6.703,-9.766 z"
       id="path952" />
    <path
       id="path950"
       style="fill:#0050a0;fill-opacity:1"
       d="m 336.35547,377.76367 v 7.10938 h 1.07031 v -3.08399 h 1.25 l 1.87305,3.08399 h 1.19726 l -2.00976,-3.13282 c 1.039,-0.136 1.83984,-0.68603 1.83984,-1.95703 0,-1.401 -0.82872,-2.01953 -2.51172,-2.01953 z m 1.07031,0.91602 h 1.47266 c 0.758,0 1.55664,0.15797 1.55664,1.04297 0,1.098 -0.81852,1.14843 -1.72852,1.14843 h -1.30078 z" />
    <path
       id="path946"
       style="fill:#0050a0;fill-opacity:1"
       d="m 338.73438,375.15039 c -3.39,0 -6.26758,2.61349 -6.26758,6.14649 0,3.57699 2.87758,6.18554 6.26758,6.18554 3.362,0 6.24609,-2.60854 6.24609,-6.18554 0,-3.53301 -2.8841,-6.14649 -6.24609,-6.14649 z m 0,1.03125 c 2.79099,0 5.0039,2.20223 5.0039,5.11524 0,2.97399 -2.2129,5.16015 -5.0039,5.16015 -2.82101,0 -5.02735,-2.18616 -5.02735,-5.16015 0,-2.91301 2.20634,-5.11524 5.02735,-5.11524 z" />
    <path
       id="path942"
       style="fill:#0050a0;fill-opacity:1"
       d="m 171.17969,375.56055 -14.8418,35.56836 c -0.873,1.696 -1.14976,2.63467 -2.25977,4.01367 -1.13399,1.406 -2.5789,2.07812 -2.6289,2.07812 l 0.0684,0.21875 c 0.612,0 1.34961,-0.002 1.34961,-0.002 h 8.13867 c 1.456,0 2.85798,-0.91502 3.33398,-2.16602 l 3.03125,-7.79296 h 16.81055 l 3.03125,7.79296 c 0.477,1.252 1.84998,2.16602 3.33399,2.16602 0,0 8.87532,0.002 9.48632,0.002 l 0.0703,-0.21875 c -0.051,0 -1.49786,-0.67212 -2.63086,-2.07812 -1.02,-1.267 -1.3366,-2.16419 -2.0586,-3.61719 -0.128,-0.258 -0.25618,-0.52987 -0.36718,-0.79687 l -14.67383,-35.16797 z m 4.58203,10.15429 c 0.005,0.015 0.009,0.027 0.0137,0.043 0.005,-0.016 0.0106,-0.028 0.0156,-0.043 0.043,0.134 5.78515,15.02539 5.78515,15.02539 h -11.60156 c 0,0 5.74411,-14.89139 5.78711,-15.02539 z" />
    <path
       style="fill:#0050a0;fill-opacity:1"
       d="m 274.018,375.849 c 2.006,1.162 3.423,3.364 3.449,5.779 0,0.89 0.007,15.155 0.007,18.68 0,13.053 -17.443,12.999 -17.443,0.231 l 0.008,-24.938 h -12.64 l -0.084,0.276 c 2.004,1.162 3.422,3.365 3.449,5.78 0.004,0.037 0.023,18.671 0.023,18.671 0,0 -0.121,3.417 1.286,7.178 0.801,2.14 2.034,3.993 3.584,5.542 1.55,1.549 3.458,2.772 5.666,3.634 2.202,0.859 4.708,1.296 7.449,1.296 2.74,0 5.247,-0.437 7.449,-1.296 2.209,-0.862 4.12,-2.085 5.68,-3.633 1.558,-1.548 2.77,-3.413 3.599,-5.543 0.824,-2.119 1.243,-4.454 1.243,-6.939 v -24.994 h -12.639 z"
       id="path938" />
    <path
       style="fill:#0050a0;fill-opacity:1"
       d="m 228.05,396.464 c 2.005,1.162 3.422,3.364 3.449,5.779 0.003,0.024 0.004,4.011 0.005,7.575 -1.751,0.602 -3.65,0.935 -5.637,0.935 -10.661,0 -15.985,-7.616 -15.985,-14.285 0,-2.371 0.64,-4.755 1.822,-6.711 2.656,-4.616 7.996,-7.774 14.163,-7.774 6.213,0 11.574,3.214 14.209,7.888 l 0.227,-0.069 -0.006,-9.532 c -7.336,-5.752 -18.651,-6.817 -27.758,-2.477 -7.752,3.695 -11.917,10.67 -11.917,18.592 0,8.138 4.203,15.252 12.043,18.977 3.727,1.771 7.795,2.638 11.81,2.638 5.675,-10e-4 11.51,-1.737 15.828,-5.105 v -16.707 h -12.167 z"
       id="path936" />
    <path
       style="fill:#0050a0;fill-opacity:1"
       d="m 103.681,409.946 c -0.024,0.003 -6.3227,0.005 -11.4882,0.006 v -34.379 h -12.639 l -0.0849,0.276 c 2.0045,1.162 3.4222,3.364 3.4489,5.779 0.0037,0.037 0.0056,30.826 0.0056,35.826 h 26.8206 v -10.868 l -0.276,-0.085 c -1.163,2.002 -3.369,3.419 -5.787,3.445 z"
       id="path934" />
    <path
       style="fill:#0050a0;fill-opacity:1"
       d="m 114.782,375.849 c 2.005,1.162 3.422,3.364 3.45,5.779 0.003,0.037 0.005,31.591 0.005,35.826 h 27.602 v -10.868 l -0.276,-0.085 c -1.163,2.002 -3.369,3.419 -5.786,3.445 -0.023,0.003 -6.516,0.004 -12.27,0.005 v -9.896 h 14.711 v -7.246 h -14.711 v -9.749 h 18.618 v -7.487 h -31.257 z"
       id="path932" />
    <path
       style="fill:#0050a0;fill-opacity:1"
       d="m 294.189,375.849 c 2.004,1.162 3.422,3.364 3.449,5.779 0.004,0.037 0.005,31.591 0.005,35.826 h 27.602 v -10.868 l -0.276,-0.085 c -1.163,2.002 -3.368,3.419 -5.785,3.445 -0.023,0.003 -6.516,0.004 -12.271,0.005 v -9.896 h 14.711 v -7.246 h -14.711 v -9.749 h 18.619 v -7.487 h -31.258 z"
       id="path824" />
  </g>
</svg>
