<svg height="358.568583" viewBox="0 0 42.114 54.072" width="278.886676" xmlns="http://www.w3.org/2000/svg" xmlns:xlink="http://www.w3.org/1999/xlink"><symbol id="a" overflow="visible"/><symbol id="b" overflow="visible"/><symbol id="c" overflow="visible"/><symbol id="d" overflow="visible"/><clipPath id="e"><path d="m503 28h49v63h-49z"/></clipPath><clipPath id="f"><path d="m532.55 32.492h-4.0078l3.2422 2.4648-1.2383 3.9844 3.2461-2.4609 3.2422 2.4609-1.2383-3.9844 3.2422-2.4648h-4.0078l-1.2383-3.9883zm-13.184 0h-4.0117l3.2422 2.4648-1.2383 3.9844 3.2461-2.4609 3.2461 2.4609-1.2383-3.9844 3.2422-2.4648h-4.0117l-1.2383-3.9883zm-16.008 34.152c0 5.5742 1.9141 10.703 5.1211 14.762l1.7383-1.375c-2.9062-3.6797-4.6406-8.332-4.6406-13.387 0-11.941 9.6797-21.621 21.621-21.621 11.941 0 21.621 9.6797 21.621 21.621 0 5.0508-1.7344 9.6992-4.6367 13.379l1.7422 1.3711c3.1992-4.0586 5.1094-9.1797 5.1094-14.75 0-13.164-10.672-23.836-23.836-23.836s-23.84 10.672-23.84 23.836m4.4609 0c0 10.688 8.6914 19.379 19.379 19.379 10.684 0 19.379-8.6914 19.379-19.379 0-10.684-8.6953-19.379-19.379-19.379-10.688 0-19.379 8.6953-19.379 19.379m.89062 0c0-10.195 8.293-18.488 18.488-18.488s18.488 8.293 18.488 18.488-8.2969 18.488-18.488 18.488c-10.195 0-18.488-8.293-18.488-18.488m18.305-17.41c-.5625.01172-.94141.36719-.9375.84375.008.52344.34765.73438.78515.90625.32813.11719.45704.22656.46094.43359.004.17188-.13281.28516-.39453.29297-.31641.0039-.49609-.21094-.58594-.33984l-.37109.41797c.15625.22266.44922.48438.97656.47656.66016-.01172 1.0312-.41016 1.0274-.90625-.008-.5-.26563-.6875-.73829-.88281-.38281-.15234-.52734-.22656-.52343-.4375-.004-.16016.125-.25781.33203-.26172.27734-.0039.42969.16016.51562.27344l.3711-.39453c-.16407-.21484-.42578-.42188-.89453-.42188zm-4.3047.61328.10547.53906.80859-.16016.45703 2.3047.61329-.12109-.45313-2.3047.8125-.16016-.10937-.53906zm6.1562.92969c-.17187.91016.30078 1.6016 1.1836 1.7656.5625.10547.9336-.05859 1.2148-.33203l-.34766-.44141c-.17578.17578-.39062.28125-.7539.21484-.5-.09375-.77344-.53516-.66797-1.1016.10156-.55469.51172-.85937 1.0195-.76562.28515.05469.47656.21094.58203.46094l.51172-.29688c-.17188-.35938-.47266-.61719-.99219-.71094-.10937-.01953-.21484-.03125-.32031-.03125-.71875 0-1.2891.47266-1.4297 1.2383m-7.9297-.32422.66797 1.5664c.17969.41406.0781.72656-.26562.87109-.34375.14844-.64453.0039-.82032-.41016l-.66796-1.5664-.57813.24609.66797 1.5625c.32422.75781.89844.99609 1.6055.69141.72656-.30859.94922-.88672.625-1.6406l-.66406-1.5625zm10.891 2.4531.57422.24609.46875-1.0859 1.0312.44531-.46875 1.0859.57422.25 1.1484-2.668-.57422-.24609-.46093 1.0664-1.0312-.44531.46093-1.0664-.57421-.25zm-15.309.04297 1.6641 2.375 1.5586-1.0977-.32031-.45312-1.0469.73437-.37109-.53125.87891-.62109-.30079-.42578-.8789.62109-.36328-.51953 1.0117-.71094-.3125-.44141zm18.316 1.4023 1.5547 1.1016.32031-.45313-1.043-.73828.375-.53125.87891.62109.30078-.42578-.875-.62109.36328-.51563 1.0078.71484.3125-.44141-1.5156-1.0781zm-21.012 12.293c0 7.3867 5.9883 13.375 13.375 13.375 7.3828 0 13.371-5.9883 13.371-13.375s-5.9883-13.371-13.371-13.371c-7.3867 0-13.375 5.9844-13.375 13.371m.77344 0c0-6.9609 5.6406-12.602 12.602-12.602s12.602 5.6406 12.602 12.602c0 6.9609-5.6406 12.602-12.602 12.602s-12.602-5.6406-12.602-12.602m22.418-10.641.42969.45312.71484-.67188.14453.15625-.26562 1.1445.52343.55469.26172-1.2852c.36719.17969.74219.13672 1.0508-.15625.45313-.42578.39844-.97266-.125-1.5234l-.625-.66406zm1.707-.33984-.20703-.21484.64453-.60938.20312.21875c.2461.25781.26172.50781.0664.69531-.0937.08594-.19141.12891-.29687.12891-.13282 0-.27344-.07031-.41016-.21875m-24.371-.67969-.63672.68359 2.125 1.9766.63672-.68359c.67968-.72656.67187-1.5234-.004-2.1562-.30078-.28125-.625-.41797-.95313-.41797-.39453 0-.79687.19922-1.168.59766m.19531.60156.23047-.25c.39453-.42578.85547-.44141 1.2578-.06641.42187.39453.44922.85547.0508 1.2852l-.23047.25zm12.398.92578c-.42969.02734-.86329.33984-2.0117.33984-1.1445 0-.94532 1.4727-.94532 1.4727s.53516-.16016.9375-.14844c.40235.01172 1.4414-.01172 1.125.62891 0 0-.82812-.29688-1.2226-.29688-.39063 0-1.332-.0078-1.5625-.35156-.23828-.33984-.32422-.44922-.32422-.44922s-.26563 1.0742.34375 1.1836c.60547.10547 1.2344 0 1.5234-.01953.29687-.01953.875-.01953 1.0273 0 .16016.01953-.008.18359-.3125.20312-.30078.02344-.99609-.02734-.8125.28516.1875.3125.51172.49219.70703.52734.19531.04297.73438-.04687.4961.53125l-.12891.38672c-.15234.4375-.625 1.4727-1.6914 1.2852-1.0703-.18359-1.2305-.26172-.8164-.8125 1.3125-1.7344 1.1367-2.1953-.71094-2.1758-1.9141.01953-2.1523.0078-2.1523.0078s-.72657-.05859-1.0078.86719c-.33203 1.0781-2.8789 7.9258-2.8789 7.9258s-.11328.66406.4414.84766c.73047.24219.96875-.46484.96875-.46484l1.8477-4.9023c.13672.08594.27344.17188.41016.25l-2.3086 6.4062s-.23437.70703.50781.96875c.66797.23047.96875-.60156.96875-.60156l2.2227-6.0586c.11719.05078.23828.09766.35156.14453l-2.3398 6.6992s-.21875.71875.47656.95312c.69141.23438.96875-.58984.96875-.58984l2.3242-6.582c.14063.03906.27734.07422.41016.10547v.01172l-1.1836 3.9492s-.19531.67969.46875.9375c.66797.26172 1.0352-.625 1.0352-.625l1.0781-3.4844s.44532 1.8125-.33593 3.0781c-.78516 1.2695-1.5508 2.1133-2.5547 2.582 0 0 .0273.14844.39062.16797.36329.03125.39063.12109.44141.1875l-.51953.79297s-.0781.28906-.42969.13281c-.35156-.15625-.79687-.39062-.79687-.39062s-.45703-.11719-.5586.10547l-.10547.21875s-.52343.05469-.58984.35156c-.0625.30078.0273.33984.0273.33984s.23438-.16406.33985-.10156c.13672.08203.0234.33594.1875.39453.29297.10547.5039-.05859.66015-.19922.10157-.09375.35157.01172.36329.08984.0156.07812-.10157.28516-.40235.32422-.30078.04297-.95312.15625-.91406.5.0352.28516.0391.3125.0391.3125-.004.0078-.24609.52344.25.71875 0 0 .0781-.3125.17969-.3125.10547 0 .19531.17969.37891.17969.18359 0 .35156-.15625.45703-.46875s.28906-.73047.28906-.73047l.20703-.13281.0937.26172c-.0273.09375-.0781.30078-.0937.35547-.0117.05078-.45312.59766-.10156.85938.34765.26172.3125.36719.40234.42969.0899.06641.45703.19531.58594.11719l-.19531-.33984c-.0391-.05078-.0274-.15625.22265-.15625.2461 0 .2461-.3125.0937-.54688-.16015-.23438-.21093-.46094-.26562-.61328-.10156-.30859.17578-.42188.30469-.10547.12109.30469.0703.59766.33984.55469.19531-.03125.24609-.16406.33594-.14844.0937.01172.35156.19141.21093.52734 0 0 .61329-.09766.40625-.65625-.14062-.37109-.30859-.1875-.19921-.55078.0859-.28516-.16797-.49609-.46875-.48438-.28125.01172-.64844-.0625-.46875-.40234.1875-.36328.4414-.79688.4414-.79688l.42969.49609s.40625-1.0156.77344-1.4727c.36328-.45703.80859-1.0195 1.0156-.90234.20703.11719.27344 1.5938.10547 2.3359-.17187.74219-.78516 2.375-.92578 2.5977-.14453.22266.80859-.14453.92578-.18359s.35156-.32422.40234.11719c.0547.44531.22657 1.2891.63282 1.7188l.008-.0078c.40625-.42969.60156-1.3047.65234-1.75.0508-.44141.28516-.15625.40625-.11719.11719.03906 1.0703.40625.92188.18359-.14063-.22266-.75391-1.8516-.92188-2.5977-.17187-.74219-.10547-2.2188.10547-2.3359.20703-.11719.64844.44531 1.0156.89844.36328.46094.76953 1.4766.76953 1.4766l.42969-.49609s.25781.43359.44531.79687c.17578.33984-.1875.41406-.46875.40625-.30469-.01172-.5586.19531-.46875.48047.10937.36328-.0586.17969-.19922.55078-.20703.55859.40234.65625.40234.65625-.13672-.33594.1211-.51562.21094-.52734.0937-.01172.14063.11719.33984.14844.26954.04297.21875-.25391.33985-.55469.125-.3125.40234-.20312.30078.10547-.0508.15234-.10547.37891-.26172.61328s-.15625.54688.0898.54688c.25 0 .26563.10547.22266.15625l-.19531.33984c.1289.07812.49609-.05078.58984-.11719.0899-.06641.0508-.16797.40235-.42969.35156-.26172-.0899-.80859-.10547-.86328-.0117-.05078-.0625-.25781-.0899-.35156-.0273-.08984.0117-.23438.0899-.25781l.21093.125s.1836.42188.28516.73438c.10547.3125.27734.46875.45703.46875.1836 0 .27344-.18359.37891-.18359s.18359.31641.18359.31641c.49219-.19531.25-.71094.25-.71875 0 0 .004-.02734.0391-.3125.0352-.34375-.61718-.46094-.91406-.5-.30469-.03906-.41797-.24609-.40625-.32422.0117-.07813.26172-.18359.36719-.08984.15234.14062.36328.30078.65625.19922.16406-.05859.0508-.30859.19141-.39453.10156-.0625.33593.10156.33593.10156s.0937-.03906.0274-.33594c-.0625-.30078-.58594-.35547-.58594-.35547l-.10547-.22266c-.10547-.21875-.55859-.10156-.55859-.10156s-.44532.23438-.79688.39062-.43359-.12891-.43359-.12891l-.41806-.90235c.0547-.0625.0781-.15625.44531-.18359.36328-.02344.39063-.16797.39063-.16797-1.0039-.46875-1.5117-1.1602-2.2969-2.4297-.78125-1.2617-.33984-3.0781-.33984-3.0781l1.0859 3.4844s.36328.89062 1.0312.625c.66406-.25781.46875-.9375.46875-.9375l-1.207-4.0469-.004-.0078c.13281-.03516.26953-.07422.40625-.11328l1.9922 6.6367s.28125.82031.97265.58594c.69141-.23438.47656-.95312.47656-.95312l-2.0273-6.793c.11719-.04687.23047-.10156.34766-.15625v.0039l1.9141 6.1602s.29687.83203.96484.60156c.7461-.25781.50782-.96484.50782-.96484l-2.0156-6.5508v-.0039c.12891-.08203.25781-.16406.38672-.25l.0508.08594 1.5312 4.9609s.23438.70703.96875.46484c.55469-.18359.44141-.84375.44141-.84375s-2.0352-6.7461-2.3633-7.8281c-.28125-.92578-1.0078-.86328-1.0078-.86328s-.23828.01172-2.1523-.01172c-1.8516-.01953-2.0273.44141-.71484 2.1758.41796.55469.25781.63281-.8125.81641-1.0703.1875-1.5781-.85547-1.6406-1.3164-.0625-.46094-.30078-2.0938-.32812-2.1758-.0664-.19531.42968-.33984.67578-.18359.44922.28516.38281.37891.38281-.47266 0-.84766-1.1211-.78125-1.1211-.78125-.0508-.63281-.73438-.74219-1.2852-.74219-.22656 0-.43359.01953-.55859.02734m-.40227.98827s.0977-.18359.34375-.17578c.24219.01172.35156.17578.35156.17578s-.15234.19531-.33203.19531h-.0117c-.18752-.007812-.35158-.19531-.35158-.19531m10.371 10.414-1.5508-5.0547c.125-.09375.25391-.1875.37891-.28906l.004.0078c.043.12109 1.5859 5.2188 1.5859 5.2188s.14454.33984-.0937.43359l-.0664.01172c-.1836 0-.25781-.32813-.25781-.32813m-19.781.35156c-.22657-.10938-.0547-.4375-.0547-.4375s1.7617-4.5312 1.9375-4.9727c.125.09375.25.17969.375.26562l-1.9062 4.8594s-.0937.30469-.27344.30469zm18.41 1.8672-1.9141-6.1836c.13281-.07031.26562-.14453.40234-.21875.13282.41406 1.9297 6.2852 1.9297 6.2852s.14453.33984-.0898.42969l-.0703.01563c-.18359 0-.25781-.32813-.25781-.32813m-16.992.28906c-.22656-.10547-.0664-.4375-.0664-.4375s1.8945-5.2422 2.1992-6.0742c.13672.07031.26953.14062.40234.20312l-2.1916 6.0117s-.0859.3125-.26953.3125zm15.312.88672-2.0352-6.5781c.14062-.04687.28125-.10156.42187-.15625.22266.70703 2.0274 6.6172 2.0274 6.6172s.14453.33984-.0899.42969l-.0703.01563c-.18359 0-.25391-.32812-.25391-.32812m-13.637.33203c-.23047-.10156-.0742-.43359-.0742-.43359s1.9297-5.5273 2.2812-6.5234c.14062.05078.28515.09766.42578.14062l-2.293 6.5195s-.0859.3125-.26563.3125zm10.961-2.4453-1.2109-3.8633.0156-.125c.125-.01953.25781-.04687.39453-.07422.0742.23438 1.2148 3.9453 1.2148 3.9453s.14453.33984-.0899.42969l-.0664.01172c-.1875 0-.25782-.32422-.25782-.32422m-7.9453.30078c-.23828-.08984-.0937-.42969-.0937-.42969s.91797-3.0781 1.1641-3.8789c.15235.03125.30078.05078.44532.07422l-1.1914 3.9219s-.0742.32812-.25781.32812zm17.062 3.3047-.38281.84375 2.6367 1.1875.3789-.84766c.41016-.90625.15235-1.6523-.6914-2.0352-.22657-.10156-.44532-.14844-.64844-.14844-.53906 0-.99609.34375-1.293 1m.375.50391.14063-.3125c.23828-.52344.66406-.6875 1.1641-.46094.52344.23438.69531.66406.45703 1.1914l-.14063.3125zm-29.664-.30468.2539.57031.9336-.41797.42969.96484.48828-.21875-.4336-.96094.71875-.32422.47657 1.0664.5-.22266-.73047-1.6367zm2.3555 2.1133c-.66407.48047-.76563 1.0898-.32032 1.7109.46094.63672 1.0742.72656 1.7344.25l1.375-.98828-.36328-.5-1.375.98828c-.36328.26562-.6875.23438-.90625-.06641-.21875-.30469-.14453-.625.21875-.88672l1.375-.98828-.36328-.50781zm25.668-.12109 1.4023 1.0742v.0039l-2.1523-.10156-.45313.58984.35547.01953 2.0586 1.5781.375-.48438-1.3945-1.0742.004-.0039 2.1289.11328.34375-.44531-2.293-1.7578zm-22.805 2.2734c-.35156.37891-.25.76562-.0508 1.1914.15625.30859.17578.48047.0391.62891-.11719.12891-.29297.12109-.48828-.05859-.23047-.21094-.21094-.49219-.1875-.64453l-.5586.04688c-.0352.26953 0 .66016.38282 1.0156.48437.44141 1.0273.41016 1.3594.04688.33594-.36719.27735-.68359.0664-1.1484-.16797-.37109-.22266-.52344-.0781-.67578.10938-.11719.26953-.09766.42188.03906.20312.1875.19922.41406.18359.55078l.53516-.03125c.0312-.27344-.0195-.60937-.375-.93359-.21094-.19531-.44922-.28906-.67188-.28906-.21484 0-.42187.08594-.57812.26172m20.574.21875 1.0742 1.3125c.28125.34766.27343.67188-.0156.91016-.28906.23438-.61328.17969-.89453-.16406l-1.0742-1.3164-.48437.39453 1.0703 1.3125c.51953.63281 1.1367.69922 1.7266.21484.60938-.49609.66016-1.1133.14453-1.7422l-1.0703-1.3125zm-18.531 1.5469c-.27735.4375-.11328.80078.16015 1.1836.20703.27344.25782.44141.14844.61328-.0937.14453-.26562.16797-.48828.02734-.26563-.16797-.29688-.44531-.30078-.60156l-.53906.14453c.0117.27344.11328.65234.55468.92969.55469.35547 1.082.22656 1.3438-.19141.26953-.42188.15625-.71875-.13281-1.1406-.23437-.33594-.3125-.47656-.19531-.65234.082-.13281.24609-.14453.41797-.03516.23437.14844.26953.37109.28125.51172l.51953-.125c-.0195-.27734-.12891-.59766-.53125-.85547-.19141-.12109-.38672-.17969-.57031-.17969-.27344 0-.51563.12891-.66797.37109m15.492.51172-.83984.42969 1.3125 2.5742.89453-.45703c.6211-.31641.79688-.75781.57813-1.1875-.17188-.33984-.51563-.42969-.8086-.33984l-.004-.0078c.19922-.19141.28125-.47266.11328-.80469-.125-.24609-.33594-.38281-.61328-.38281-.1836 0-.39453.05469-.63282.17578m-.0469.61328.26953-.13672c.25391-.12891.42969-.09766.52734.09766.0977.1875.0234.37109-.22265.5l-.26953.13672zm.51953 1.0234.30469-.15625c.27734-.14063.48047-.10938.57812.08984.10157.19922.0195.38281-.26172.52344l-.30468.15625zm-14.316 1.2617.9336.37109c.64844.25781 1.0938.09766 1.2734-.34766.14062-.35547-.0195-.67188-.27735-.83203l.004-.0078c.27344.02344.53906-.10156.67578-.44531.16797-.42969-.0391-.82422-.66797-1.0742l-.875-.34766zm1.4844-1.2344-.28125-.10938.25-.62109.27734.10938c.26563.10547.35938.25781.27735.46094-.0547.13672-.16016.21094-.30469.21094zm-.39063 1.1016-.32031-.125.25391-.64453.3164.125c.29297.11719.39844.28906.31641.49609-.0547.13672-.15625.20703-.30469.20703-.0742 0-.16406-.01953-.26172-.05859m3.3086-1.2109-1.5 2.4141.64062.10938.30469-.51953 1.0078.17578.10547.59375.67188.11719-.64453-3.0469-.64844-.11328zm-.28516 1.543.46875-.80859h.008l.16797.92188zm5.043-1.625.51172 2.8398 1.6523-.29688-.0976-.55078-1.0391.1875-.41406-2.293zm-2.3711.11328.043 2.8867 1.6797-.02344-.008-.5625-1.0547.01562-.0391-2.3281zm7.9766 5.8008.76953 2.082c3.5586-1.3164 6.7227-3.457 9.2461-6.1953l-1.625-1.5039c-2.293 2.4844-5.1602 4.4258-8.3906 5.6172m-24.996-4.1016c2.5312 2.7344 5.6953 4.875 9.2578 6.1875l.76562-2.0781c-3.2305-1.1914-6.0976-3.1328-8.3945-5.6133zm21.766-.94531.15234.46875 1.0352-.32812-.14844-.46875zm-4.2617 6.3828c-2.0312 0-4-.28125-5.8633-.80469l-.60156 2.1328c2.0547.57812 4.2226.88672 6.4648.88672 2.2461 0 4.418-.30859 6.4805-.89062l-.60156-2.1328c-1.8711.52734-3.8438.80859-5.8789.80859"/></clipPath><linearGradient id="g" gradientTransform="matrix(36.396 -44.945 44.945 36.396 509.53 83.012)" gradientUnits="userSpaceOnUse" x1="-.16752" x2="1.1841"><stop offset="0" stop-color="#837226"/><stop offset=".125" stop-color="#837226"/><stop offset=".12891" stop-color="#847327"/><stop offset=".13281" stop-color="#857327"/><stop offset=".13672" stop-color="#867428"/><stop offset=".14062" stop-color="#877529"/><stop offset=".14453" stop-color="#87752a"/><stop offset=".14844" stop-color="#88762a"/><stop offset=".15234" stop-color="#89772b"/><stop offset=".15625" stop-color="#8a782b"/><stop offset=".16016" stop-color="#8a782c"/><stop offset=".16406" stop-color="#8b792d"/><stop offset=".16797" stop-color="#8b792e"/><stop offset=".17188" stop-color="#8c7a2e"/><stop offset=".17578" stop-color="#8d7b2f"/><stop offset=".17969" stop-color="#8e7c30"/><stop offset=".18359" stop-color="#8f7d30"/><stop offset=".1875" stop-color="#907d31"/><stop offset=".19141" stop-color="#907e32"/><stop offset=".19531" stop-color="#917f33"/><stop offset=".19922" stop-color="#917f34"/><stop offset=".20312" stop-color="#928035"/><stop offset=".20703" stop-color="#938135"/><stop offset=".21094" stop-color="#948236"/><stop offset=".21484" stop-color="#948237"/><stop offset=".21875" stop-color="#958338"/><stop offset=".22266" stop-color="#958439"/><stop offset=".22656" stop-color="#96843a"/><stop offset=".23047" stop-color="#97853b"/><stop offset=".23438" stop-color="#98863b"/><stop offset=".23828" stop-color="#99873c"/><stop offset=".24219" stop-color="#9a883d"/><stop offset=".24609" stop-color="#9a893e"/><stop offset=".25" stop-color="#9b893f"/><stop offset=".25391" stop-color="#9c8a40"/><stop offset=".25781" stop-color="#9c8b41"/><stop offset=".26172" stop-color="#9e8c42"/><stop offset=".26562" stop-color="#9f8d43"/><stop offset=".26953" stop-color="#9f8d44"/><stop offset=".27344" stop-color="#a08e45"/><stop offset=".27734" stop-color="#a08f46"/><stop offset=".28125" stop-color="#a18f46"/><stop offset=".28516" stop-color="#a29047"/><stop offset=".28906" stop-color="#a39248"/><stop offset=".29297" stop-color="#a4924a"/><stop offset=".29688" stop-color="#a4934b"/><stop offset=".30078" stop-color="#a5934c"/><stop offset=".30469" stop-color="#a5944d"/><stop offset=".30859" stop-color="#a6954e"/><stop offset=".3125" stop-color="#a7964e"/><stop offset=".31641" stop-color="#a89750"/><stop offset=".32031" stop-color="#a99851"/><stop offset=".32422" stop-color="#a99852"/><stop offset=".32812" stop-color="#aa9953"/><stop offset=".33203" stop-color="#ab9a54"/><stop offset=".33594" stop-color="#ac9a55"/><stop offset=".33984" stop-color="#ac9b56"/><stop offset=".34375" stop-color="#ad9d57"/><stop offset=".34766" stop-color="#ae9d58"/><stop offset=".35156" stop-color="#af9e5a"/><stop offset=".35547" stop-color="#af9f5b"/><stop offset=".35938" stop-color="#b09f5c"/><stop offset=".36328" stop-color="#b1a05d"/><stop offset=".36719" stop-color="#b2a15e"/><stop offset=".37109" stop-color="#b3a25f"/><stop offset=".375" stop-color="#b4a360"/><stop offset=".37891" stop-color="#b4a462"/><stop offset=".38281" stop-color="#b5a563"/><stop offset=".38672" stop-color="#b5a664"/><stop offset=".39062" stop-color="#b6a665"/><stop offset=".39453" stop-color="#b7a766"/><stop offset=".39844" stop-color="#b8a868"/><stop offset=".40234" stop-color="#b9a969"/><stop offset=".40625" stop-color="#baaa6a"/><stop offset=".41016" stop-color="#baab6b"/><stop offset=".41406" stop-color="#bbac6c"/><stop offset=".41797" stop-color="#bbac6d"/><stop offset=".42188" stop-color="#bcad6f"/><stop offset=".42578" stop-color="#bdae70"/><stop offset=".42969" stop-color="#beaf71"/><stop offset=".43359" stop-color="#bfb073"/><stop offset=".4375" stop-color="#bfb174"/><stop offset=".44141" stop-color="#c0b275"/><stop offset=".44531" stop-color="#c0b276"/><stop offset=".44922" stop-color="#c1b478"/><stop offset=".45312" stop-color="#c3b579"/><stop offset=".45703" stop-color="#c3b67b"/><stop offset=".46094" stop-color="#c4b67c"/><stop offset=".46484" stop-color="#c5b77d"/><stop offset=".46875" stop-color="#c5b87e"/><stop offset=".47266" stop-color="#c6b97f"/><stop offset=".47656" stop-color="#c7ba81"/><stop offset=".48047" stop-color="#c8bb82"/><stop offset=".48438" stop-color="#c9bc83"/><stop offset=".48828" stop-color="#cabd85"/><stop offset=".49219" stop-color="#cabe86"/><stop offset=".49609" stop-color="#cabe85"/><stop offset=".5" stop-color="#c9bd85"/><stop offset=".50391" stop-color="#c9bc83"/><stop offset=".50781" stop-color="#c8bb82"/><stop offset=".51172" stop-color="#c7ba80"/><stop offset=".51562" stop-color="#c6b87f"/><stop offset=".51953" stop-color="#c5b87e"/><stop offset=".52344" stop-color="#c4b77d"/><stop offset=".52734" stop-color="#c4b67c"/><stop offset=".53125" stop-color="#c4b67b"/><stop offset=".53516" stop-color="#c2b479"/><stop offset=".53906" stop-color="#c1b377"/><stop offset=".54297" stop-color="#c0b276"/><stop offset=".54688" stop-color="#c0b275"/><stop offset=".55078" stop-color="#bfb174"/><stop offset=".55469" stop-color="#bfb072"/><stop offset=".55859" stop-color="#beaf71"/><stop offset=".5625" stop-color="#bcae70"/><stop offset=".56641" stop-color="#bcad6e"/><stop offset=".57031" stop-color="#bbac6d"/><stop offset=".57422" stop-color="#baac6c"/><stop offset=".57812" stop-color="#baab6b"/><stop offset=".58203" stop-color="#b9aa6a"/><stop offset=".58594" stop-color="#b9a969"/><stop offset=".58984" stop-color="#b7a868"/><stop offset=".59375" stop-color="#b6a766"/><stop offset=".59766" stop-color="#b6a665"/><stop offset=".60156" stop-color="#b5a564"/><stop offset=".60547" stop-color="#b5a562"/><stop offset=".60938" stop-color="#b4a461"/><stop offset=".61328" stop-color="#b3a361"/><stop offset=".61719" stop-color="#b2a360"/><stop offset=".62109" stop-color="#b2a15e"/><stop offset=".625" stop-color="#b1a05d"/><stop offset=".62891" stop-color="#b09f5c"/><stop offset=".63281" stop-color="#af9f5b"/><stop offset=".63672" stop-color="#af9e5a"/><stop offset=".64062" stop-color="#af9e59"/><stop offset=".64453" stop-color="#ad9c57"/><stop offset=".64844" stop-color="#ac9b56"/><stop offset=".65234" stop-color="#ab9a55"/><stop offset=".65625" stop-color="#ab9a54"/><stop offset=".66016" stop-color="#aa9953"/><stop offset=".66406" stop-color="#a99952"/><stop offset=".66797" stop-color="#a99851"/><stop offset=".67188" stop-color="#a8974f"/><stop offset=".67578" stop-color="#a7964e"/><stop offset=".67969" stop-color="#a6954e"/><stop offset=".68359" stop-color="#a5944d"/><stop offset=".6875" stop-color="#a4934c"/><stop offset=".69141" stop-color="#a4934b"/><stop offset=".69531" stop-color="#a4924a"/><stop offset=".69922" stop-color="#a39148"/><stop offset=".70312" stop-color="#a29047"/><stop offset=".70703" stop-color="#a18f46"/><stop offset=".71094" stop-color="#a08f46"/><stop offset=".71484" stop-color="#a08e45"/><stop offset=".71875" stop-color="#9f8d44"/><stop offset=".72266" stop-color="#9e8c43"/><stop offset=".72656" stop-color="#9d8b42"/><stop offset=".73047" stop-color="#9d8b41"/><stop offset=".73438" stop-color="#9c8a40"/><stop offset=".73828" stop-color="#9b893f"/><stop offset=".74219" stop-color="#9a883e"/><stop offset=".74609" stop-color="#9a883d"/><stop offset=".75" stop-color="#99873c"/><stop offset=".75391" stop-color="#98863b"/><stop offset=".75781" stop-color="#97853a"/><stop offset=".76172" stop-color="#96843a"/><stop offset=".76562" stop-color="#958439"/><stop offset=".76953" stop-color="#958338"/><stop offset=".77344" stop-color="#948237"/><stop offset=".77734" stop-color="#948236"/><stop offset=".78125" stop-color="#938135"/><stop offset=".78516" stop-color="#928035"/><stop offset=".78906" stop-color="#917f34"/><stop offset=".79297" stop-color="#917e33"/><stop offset=".79688" stop-color="#907e32"/><stop offset=".80078" stop-color="#907d31"/><stop offset=".80469" stop-color="#8f7d30"/><stop offset=".80859" stop-color="#8e7c30"/><stop offset=".8125" stop-color="#8c7a2f"/><stop offset=".81641" stop-color="#8c7a2e"/><stop offset=".82031" stop-color="#8b792e"/><stop offset=".82422" stop-color="#8b792d"/><stop offset=".82812" stop-color="#8a782c"/><stop offset=".83203" stop-color="#89782b"/><stop offset=".83594" stop-color="#89772b"/><stop offset=".83984" stop-color="#88762a"/><stop offset=".84375" stop-color="#87752a"/><stop offset=".84766" stop-color="#877529"/><stop offset=".85156" stop-color="#867428"/><stop offset=".85547" stop-color="#857327"/><stop offset=".85938" stop-color="#857327"/><stop offset=".875" stop-color="#847327"/><stop offset="1" stop-color="#847326"/></linearGradient><clipPath id="h"><path d="m0 0h595.25v841.87h-595.25z"/></clipPath><g fill="#fff" transform="translate(-521.33 -37.489)"><use height="100%" width="100%" x="78.928551" xlink:href="#a" y="797.82721"/><use height="100%" width="100%" x="40.792549" xlink:href="#a" y="812.83173"/><use height="100%" width="100%" x="462.38959" xlink:href="#b" y="654.47467"/><use height="100%" width="100%" x="536.8952" xlink:href="#b" y="654.47467"/><use height="100%" width="100%" x="470.76419" xlink:href="#b" y="681.98273"/><use height="100%" width="100%" x="539.24298" xlink:href="#b" y="681.98273"/><use height="100%" width="100%" x="58.4492" xlink:href="#c" y="106.1328"/><use height="100%" width="100%" x="162.72951" xlink:href="#c" y="106.1328"/><use height="100%" width="100%" x="188.2364" xlink:href="#c" y="106.1328"/><use height="100%" width="100%" x="258.0827" xlink:href="#c" y="106.1328"/></g><g clip-path="url(#e)" stroke-width="1.196" transform="matrix(.83615 0 0 .83615 -419.69 -22.636)"><g clip-path="url(#f)" stroke-width="1.196"><path d="m473.05 65.938 59.102 47.859 49.195-60.746-59.105-47.863z" fill="url(#g)"/></g></g><g transform="translate(-521.33 -37.489)"><g fill="#fff"><use height="100%" width="100%" x="215.8345" xlink:href="#d" y="188.2178"/><use height="100%" width="100%" x="227.2816" xlink:href="#d" y="188.2178"/><use height="100%" width="100%" x="115.4251" xlink:href="#d" y="208.20979"/><use height="100%" width="100%" x="126.8386" xlink:href="#d" y="208.20979"/></g><g clip-path="url(#h)"><path d="m-8.5.62891h-15v-1.25h15zm612.29-1.25h15v1.25h-15zm-612.29 843.14h-15v-1.25h15zm612.29-1.25h15v1.25h-15zm-604.41-864.77h1.25v15h-1.25zm1.25 888.9h-1.25v-15h1.25zm594.03-888.9h1.25v15h-1.25zm1.25 888.9h-1.25v-15h1.25z" fill="#fff"/><path d="m-8.5.12891h-15v-.25h15zm612.29-.25h15v.25h-15zm-612.29 842.14h-15v-.25h15zm612.29-.25h15v.25h-15zm-603.91-865.27h.25v15h-.25zm.25 888.9h-.25v-15h.25zm595.03-888.9h.25v15h-.25zm.25 888.9h-.25v-15h.25z"/></g></g></svg>