<?xml version="1.0" encoding="utf-8"?>
<!-- Generator: Adobe Illustrator 21.1.0, SVG Export Plug-In . SVG Version: 6.00 Build 0)  -->
<svg version="1.1" id="Ebene_1" xmlns="http://www.w3.org/2000/svg" xmlns:xlink="http://www.w3.org/1999/xlink" x="0px" y="0px"
	 viewBox="0 0 611.7 684.2" width="299.004486812" height="334.443141861" style="enable-background:new 0 0 611.7 684.2;" xml:space="preserve">
<style type="text/css">
	.st0{fill:#FFFFFF;}
	.st1{fill:#000098;}
	.st2{fill-rule:evenodd;clip-rule:evenodd;fill:#000098;}
	.st3{fill-rule:evenodd;clip-rule:evenodd;fill:#FFFFFF;}
	.st4{fill:none;stroke:#FFFFFF;stroke-width:0.1046;stroke-miterlimit:22.9256;}
	.st5{fill-rule:evenodd;clip-rule:evenodd;fill:#000098;}
</style>
<g>
	<g>
		<path class="st0" d="M491,7.2C416,32.2,360,46.4,303.7,47.6c-56.3,1.2-112.6-10.5-188.1-37.3c-20.1,35.6-64.4,65.1-92.7,84
			c-5.3,3.5-10,6.6-13.8,9.3c9.5,10.1,20.7,22.1,30.7,35.6c10.9,14.7,20.5,31,24.9,48.2c13.7,52.9-1.8,87.8-17.9,123.8
			c-7.3,16.4-14.7,33.1-19.4,51.8c-3.7,14.8-7.4,35.2-8,54.7C18.8,432.1,20,446,24,456.4l0,0c3.2,8.3,4.9,14.4,6.4,19.7
			c1.4,5.1,2.6,9.5,4.8,14.2v0c2.2,4.9,4.5,9.4,7.2,14c2.7,4.5,5.9,9.1,9.9,14.3l0,0c9,11.5,22.8,24.5,43.4,37.4
			c16.7,10.4,37.8,20.6,64.4,29.5c7.3,2.5,15,4.9,22.6,7.3c22.5,7.1,44.4,14,64.2,24.7c19.1,10.3,33.2,28.3,45.9,44.4
			c3.6,4.6,7.1,9.1,10.5,13.1c2-2.5,4.2-5.2,6.3-7.8c26-32.5,49.7-62.1,107.2-73c23.2-4.4,43.5-11,61.5-19.1
			c18-8.1,33.6-17.7,47.5-28.2c27.3-20.6,47.3-47.3,58.2-77.7c10.6-29.6,12.6-62.7,4.3-97.1c-6-25.2-15.3-46.4-24-66.3
			c-12-27.3-22.8-52.1-22.8-81c0-20,5.2-42.7,16.8-65.8c9.7-19.3,24-38.9,43.4-57.2c-16.4-10.5-38-24.8-58.3-40.9
			C522.4,44.1,502.6,25.5,491,7.2z"/>
		<path class="st1" d="M547.3,56.1c-21.4-16.9-41.5-35.8-52.4-54L493.7,0l-2.3,0.8C415.7,26,359.7,40.4,303.6,41.6
			C247.5,42.8,191.3,31,115.2,3.8l-2.4-0.9l-1.2,2.3c-18.7,35.3-63.6,65.1-92,84c-6.6,4.4-12.3,8.2-16.8,11.5l-2.8,2l2.3,2.5
			c9.9,10.4,22,23.3,32.6,37.6c10.5,14.2,19.7,29.8,23.9,46.1c13.2,50.9-1.9,84.8-17.5,119.9c-7.4,16.7-15,33.7-19.8,52.8
			c-3.8,15.1-7.5,36-8.2,55.9c-0.5,15.2,0.7,29.8,5.1,41.1h0c3.1,7.9,4.7,13.9,6.2,19.1c1.5,5.4,2.8,10,5.1,15.1l0,0
			c2.3,5.1,4.7,9.8,7.6,14.6c2.9,4.8,6.2,9.6,10.3,14.9h0c9.3,11.9,23.7,25.6,45,38.8c17.1,10.6,38.6,21,65.7,30.1
			c7.8,2.6,15.3,5,22.7,7.3c22.2,7,43.9,13.8,63.2,24.2c18,9.7,31.7,27.2,44,42.8c4.5,5.7,8.8,11.2,13.1,16l2.3,2.6l2.2-2.7
			c3.1-3.8,5.9-7.3,8.6-10.7c25.2-31.6,48.3-60.4,103.7-70.9c23.7-4.5,44.5-11.2,62.9-19.5c18.4-8.3,34.4-18.1,48.6-28.9
			c28.3-21.3,48.9-49,60.2-80.5c11-30.7,13-65,4.5-100.5c-6.1-25.6-15.6-47.2-24.4-67.3c-11.7-26.7-22.3-51-22.3-78.6
			c0-19.1,5-40.9,16.2-63.1c9.9-19.6,24.6-39.6,45-58.1l2.9-2.6l-3.3-2.1C591.8,88.2,568.9,73.1,547.3,56.1z M558.4,158.9
			c-11.6,23.1-16.8,45.9-16.8,65.8c0,28.9,10.8,53.6,22.8,81c8.7,19.9,18,41.2,24,66.3c8.2,34.3,6.3,67.5-4.3,97.1
			c-10.9,30.4-30.8,57.1-58.2,77.7c-13.9,10.5-29.5,20.1-47.5,28.2c-18,8.1-38.3,14.7-61.5,19.1c-57.6,10.9-81.3,40.6-107.2,73
			c-2.1,2.6-4.2,5.3-6.3,7.8c-3.4-4-6.9-8.5-10.5-13.1c-12.7-16.1-26.8-34.2-45.9-44.4c-19.8-10.7-41.7-17.6-64.2-24.7
			c-7.6-2.4-15.2-4.8-22.6-7.3c-26.6-9-47.7-19.2-64.4-29.5c-20.6-12.8-34.5-25.9-43.4-37.4l0,0c-4-5.1-7.2-9.7-9.9-14.3
			c-2.7-4.6-5.1-9.1-7.2-14v0c-2.2-4.8-3.4-9.1-4.8-14.2c-1.5-5.3-3.2-11.4-6.4-19.7l0,0c-4-10.5-5.2-24.3-4.7-38.7
			c0.7-19.5,4.3-39.9,8-54.7c4.7-18.7,12.1-35.4,19.4-51.8c16-36.1,31.6-71,17.9-123.8c-4.4-17.1-14-33.5-24.9-48.2
			c-10-13.5-21.2-25.5-30.7-35.6c3.8-2.7,8.5-5.8,13.8-9.3c28.3-18.8,72.6-48.3,92.7-84c75.6,26.8,131.9,38.5,188.1,37.3
			C360,46.4,416,32.2,491,7.2c11.6,18.3,31.4,36.9,52.5,53.6c20.3,16.1,41.9,30.4,58.3,40.9C582.4,120,568.2,139.6,558.4,158.9z"/>
	</g>
	<path class="st2" d="M483.3,19.6L51.8,500.4c-37.2-70.3-16.6-131.1,11.8-198.8C93.8,229.9,85.3,171.2,27.4,105
		C65.9,82.8,93.2,56.1,123,23.6C240.7,69.8,361.3,66.5,483.3,19.6L483.3,19.6z"/>
	<path class="st2" d="M549.7,149.3L359.5,368.2L168.2,576.3c61.5,19.8,95.7,20.4,136.3,82.1c43.5-55.4,68.2-64.3,133.1-83.5
		c101.3-30,172.6-104,134.6-217.2C544.1,278,508.4,232.1,549.7,149.3L549.7,149.3z"/>
	<path class="st3" d="M182.5,215.8c-8-6.6-24.7-17.2-48.3,8.5c-16.4,17.8-12.7,35-2,44.9c12,11,25.1,3.1,30.6-0.8l17.1-12
		c13.8-9.6,19.4-11.1,26.6-4.5c9.9,9.1,0.5,22.7-6.1,29.9c-8.7,9.4-22.3,16.9-34.7,5.5l-8.6,9.3c6.4,5.9,13.3,10,24.3,8.6
		c5.8-0.7,14.6-2.5,27.1-16.1c11.6-12.6,21.9-32.9,5.7-47.9c-11-10-22.9-7.8-33.7-0.2l-23.8,16.8c-4.9,3.4-10.9,6-16.7,0.7
		c-10.4-9.6-2.4-21.7,3.4-27.9c7.6-8.3,19.7-14.6,30.8-5.4L182.5,215.8L182.5,215.8z"/>
	<path class="st3" d="M252.9,140.4c-12.8-9.1-32.9-9.4-50.3,9.5c-19.7,21.4-16.9,47.8,4.3,67.3c26.4,24.3,51.7,17.3,67,0.6
		c5.1-5.5,24.7-29.1,2.4-57.1l-8.8,9.6c12.9,18.1,5.5,31.9-0.5,38.3c-16.8,18.2-34.8,12.9-51-2c-18.1-16.7-17.4-35.9-5.2-49.2
		c6.5-7,18.6-15.8,33.2-7.4L252.9,140.4L252.9,140.4z"/>
	<path class="st4" d="M182.5,215.8c-8-6.6-24.7-17.2-48.3,8.5c-16.4,17.8-12.7,35-2,44.9c12,11,25.1,3.1,30.6-0.8l17.1-12
		c13.8-9.6,19.4-11.1,26.6-4.5c9.9,9.1,0.5,22.7-6.1,29.9c-8.7,9.4-22.3,16.9-34.7,5.5l-8.6,9.3c6.4,5.9,13.3,10,24.3,8.6
		c5.8-0.7,14.6-2.5,27.1-16.1c11.6-12.6,21.9-32.9,5.7-47.9c-11-10-22.9-7.8-33.7-0.2l-23.8,16.8c-4.9,3.4-10.9,6-16.7,0.7
		c-10.4-9.6-2.4-21.7,3.4-27.9c7.6-8.3,19.7-14.6,30.8-5.4L182.5,215.8L182.5,215.8z M252.9,140.4c-12.8-9.1-32.9-9.4-50.3,9.5
		c-19.7,21.4-16.9,47.8,4.3,67.3c26.4,24.3,51.7,17.3,67,0.6c5.1-5.5,24.7-29.1,2.4-57.1l-8.8,9.6c12.9,18.1,5.5,31.9-0.5,38.3
		c-16.8,18.2-34.8,12.9-51-2c-18.1-16.7-17.4-35.9-5.2-49.2c6.5-7,18.6-15.8,33.2-7.4L252.9,140.4L252.9,140.4z"/>
	<path class="st5" d="M196.5,406.4c-8.4-6.6-26.6-16.7-56.5,16.8c-20.7,23.2-18.3,42.9-7,53c12.6,11.2,28.6,0.1,35.3-5.2l20.9-16.6
		c16.9-13.2,23.5-15.8,31.1-9c10.4,9.3-1.9,26.6-10.2,36c-11,12.3-27.4,23-40.6,11.3l-10.8,12.1c6.8,6,14.2,9.8,27.1,6.6
		c6.7-1.6,17-5,32.8-22.7c14.7-16.4,28.7-41.8,11.6-57.1c-11.5-10.3-25.5-5.9-38.8,4.5l-29.2,23.1c-6,4.7-13.1,8.6-19.3,3.1
		c-11-9.8-0.4-25.1,6.8-33.2c9.6-10.8,24.1-19.9,35.9-10.6L196.5,406.4L196.5,406.4z"/>
	<path class="st5" d="M291.5,360.7L321,370l12.6-14.1L230.3,326l-13.1,14.7l40.2,100.7l11.9-13.4l-12.1-28.8L291.5,360.7
		L291.5,360.7z M252.1,387.4l-18.2-43.8l0.2-0.2l44.5,14.3L252.1,387.4L252.1,387.4z"/>
	<polygon class="st5" points="387.1,268 386.8,268.3 285.6,264 271.8,279.4 344.3,344 355.5,331.4 297,279.2 297.2,279 399.2,282.4 
		412.2,267.9 339.8,203.3 328.6,215.8 387.1,268 	"/>
	<path class="st5" d="M430.9,246.9l34.2-38.3c28.1-31.5,15.5-59.6-0.8-74.1c-20.9-18.6-48.9-16-71.2,8.9l-34.7,38.9L430.9,246.9
		L430.9,246.9z M378.4,176.8l21.5-24.2c15.7-17.6,34.8-20.5,53.1-4.2c18.2,16.3,18.5,36.2,3.4,53l-22.4,25.1L378.4,176.8
		L378.4,176.8z"/>
	<path class="st2" d="M196.5,406.4c-8.4-6.6-26.6-16.7-56.5,16.8c-20.7,23.2-18.3,42.9-7,53c12.6,11.2,28.6,0.1,35.3-5.2l20.9-16.6
		c16.9-13.2,23.5-15.8,31.1-9c10.4,9.3-1.9,26.6-10.2,36c-11,12.3-27.4,23-40.6,11.3l-10.8,12.1c6.8,6,14.2,9.8,27.1,6.6
		c6.7-1.6,17-5,32.8-22.7c14.7-16.4,28.7-41.8,11.6-57.1c-11.5-10.3-25.5-5.9-38.8,4.5l-29.2,23.1c-6,4.7-13.1,8.6-19.3,3.1
		c-11-9.8-0.4-25.1,6.8-33.2c9.6-10.8,24.1-19.9,35.9-10.6L196.5,406.4L196.5,406.4z"/>
	<path class="st2" d="M291.5,360.7L321,370l12.6-14.1L230.3,326l-13.1,14.7l40.2,100.7l11.9-13.4l-12.1-28.8L291.5,360.7
		L291.5,360.7z M252.1,387.4l-18.2-43.8l0.2-0.2l44.5,14.3L252.1,387.4L252.1,387.4z"/>
	<polygon class="st2" points="387.1,268 386.8,268.3 285.6,264 271.8,279.4 344.3,344 355.5,331.4 297,279.2 297.2,279 399.2,282.4 
		412.2,267.9 339.8,203.3 328.6,215.8 387.1,268 	"/>
	<path class="st2" d="M430.9,246.9l34.2-38.3c28.1-31.5,15.5-59.6-0.8-74.1c-20.9-18.6-48.9-16-71.2,8.9l-34.7,38.9L430.9,246.9
		L430.9,246.9z M378.4,176.8l21.5-24.2c15.7-17.6,34.8-20.5,53.1-4.2c18.2,16.3,18.5,36.2,3.4,53l-22.4,25.1L378.4,176.8
		L378.4,176.8z"/>
	<path class="st3" d="M297,477.6l-6.6,7.3c9.3,13.7,5.9,19.7-4.2,32.5l7.3,6.6l15.6-17.3l51.8,46.8l9-9.9L297,477.6L297,477.6z"/>
	<path class="st3" d="M389.5,472.8c6.2-6.9,9.8-17.1,6.6-24.9l0.4,0c16.8,19.4,20.3,32.4,11.2,42.5c-6.9,7.6-15.4,7.9-23.3,1.8
		l-8.4,9.3c7.1,6.4,23.7,13,39.5-4.4c23.1-25.6-9-57.1-16.8-64.1c-11.8-10.7-36-28.2-57.3-4.6c-14.1,15.6-9.8,34.5,3.5,46.5
		C359.4,488.1,377.1,486.6,389.5,472.8L389.5,472.8z M382.6,464.1c-5.6,6.2-15.4,13.5-29.4,0.9c-9.8-8.8-11.3-20.5-3.4-29.2
		c9.6-10.7,20.8-8.5,29.1-1C393.3,447.8,387,459.2,382.6,464.1L382.6,464.1z"/>
	<path class="st3" d="M474.1,392.6l-7.9-7.1l-9.8,10.9L409,353.6l-7,7.7l15.6,75.9l8.9,8.1l29.3-32.4l17.7,16l8.4-9.3l-17.8-16
		L474.1,392.6L474.1,392.6z M414.6,376l0.2-0.2l33.1,29.9l-21.6,23.9L414.6,376L414.6,376z"/>
	<path class="st3" d="M489.4,303.6c-15.7-12.4-31.2-4.4-39,4.1c-20.1,22.2-1.8,48.3,14.2,62.7c9.6,8.6,19.6,15.4,30.5,17.2
		c12.9,2,22.7-3.8,27.9-9.6c9.5-10.5,10.7-17.4,9.9-25.2c-0.8-9.9-4.4-16.8-11.9-23.6c-17.4-15.8-36-6.8-44.2,2.3
		c-9.1,10.2-8.8,19.8-7,25.7l-0.4,0c-7.7-7-24.2-27.4-11-42c7.3-8,15.3-7.3,22.8-2.7L489.4,303.6L489.4,303.6z M486,370
		c-8.6-7.8-11.4-19.3-2.1-29.6c10.4-11.5,22.5-6.9,28.9-1.1c9.8,8.9,11.5,20.8,3.5,29.7C506.5,379.9,493.8,377.1,486,370L486,370z"
		/>
	<path class="st4" d="M297,477.6l-6.6,7.3c9.3,13.7,5.9,19.7-4.2,32.5l7.3,6.6l15.6-17.3l51.8,46.8l9-9.9L297,477.6L297,477.6z
		 M389.5,472.8c6.2-6.9,9.8-17.1,6.6-24.9l0.4,0c16.8,19.4,20.3,32.4,11.2,42.5c-6.9,7.6-15.4,7.9-23.3,1.8l-8.4,9.3
		c7.1,6.4,23.7,13,39.5-4.4c23.1-25.6-9-57.1-16.8-64.1c-11.8-10.7-36-28.2-57.3-4.6c-14.1,15.6-9.8,34.5,3.5,46.5
		C359.4,488,377.1,486.6,389.5,472.8L389.5,472.8z M382.6,464.1c-5.6,6.2-15.4,13.5-29.4,0.9c-9.8-8.8-11.3-20.5-3.4-29.2
		c9.6-10.7,20.8-8.5,29.1-1C393.3,447.8,387,459.2,382.6,464.1L382.6,464.1z M474.1,392.6l-7.9-7.1l-9.8,10.9L409,353.6l-7,7.7
		l15.6,75.9l8.9,8.1l29.3-32.4l17.7,16l8.4-9.3l-17.8-16L474.1,392.6L474.1,392.6z M414.6,376l0.2-0.2l33.1,29.9l-21.6,23.9
		L414.6,376L414.6,376z M489.4,303.6c-15.7-12.4-31.3-4.4-39,4.1c-20.1,22.2-1.8,48.3,14.2,62.7c9.6,8.6,19.6,15.4,30.5,17.2
		c12.9,2,22.7-3.8,27.9-9.6c9.5-10.5,10.7-17.4,9.9-25.2c-0.8-9.9-4.4-16.8-11.9-23.6c-17.4-15.8-36-6.8-44.2,2.3
		c-9.1,10.2-8.8,19.8-7,25.7l-0.4,0c-7.7-7-24.2-27.4-11-42c7.3-8,15.3-7.3,22.8-2.7L489.4,303.6L489.4,303.6z M486,370
		c-8.6-7.8-11.4-19.3-2.1-29.6c10.4-11.5,22.5-6.9,28.9-1.1c9.8,8.9,11.5,20.8,3.5,29.7C506.5,379.9,493.8,377,486,370L486,370z"/>
</g>
</svg>
